<svg xmlns="http://www.w3.org/2000/svg" width="17" height="16.254" viewBox="0 0 17 16.254"><g transform="translate(6 -15.121)"><g transform="translate(-6 15.121)"><path d="M17.329,15.6,19.1,20.537l5.422.322c.752.054.913.752.376,1.127l-4.134,3.275,1.4,5.207c.215.752-.429,1.127-.966.752l-4.348-2.953L12.283,31.22c-.644.429-1.181-.107-.966-.7l1.449-5.046L8.525,22.04A.637.637,0,0,1,8.9,20.859l5.261-.161,1.933-5.046A.631.631,0,0,1,17.329,15.6Z" transform="translate(-8.214 -15.121)" fill="#b1b1b1" fill-rule="evenodd"/></g></g></svg>