<?xml version="1.0" standalone="no"?>
<!DOCTYPE svg PUBLIC "-//W3C//DTD SVG 20010904//EN"
 "http://www.w3.org/TR/2001/REC-SVG-20010904/DTD/svg10.dtd">
<svg version="1.0" xmlns="http://www.w3.org/2000/svg"
 width="1440.000000pt" height="1440.000000pt" viewBox="0 0 1440.000000 1440.000000"
 preserveAspectRatio="xMidYMid meet">
<metadata>
Created by potrace 1.14, written by Peter Selinger 2001-2017
</metadata>
<g transform="translate(0.000000,1440.000000) scale(0.100000,-0.100000)"
fill="#000000" stroke="none">
<path d="M6948 14396 c-1 -2 -48 -7 -103 -10 -55 -4 -116 -9 -135 -12 -19 -2
-53 -6 -75 -9 -22 -3 -58 -7 -80 -10 -22 -4 -56 -8 -75 -10 -19 -2 -35 -4 -35
-5 0 -2 -24 -7 -72 -14 -21 -3 -45 -7 -53 -9 -23 -5 -109 -19 -117 -19 -5 0
-17 -5 -28 -11 -11 -5 -34 -11 -52 -13 -17 -2 -51 -8 -75 -15 -24 -7 -47 -13
-53 -15 -5 -1 -50 -14 -100 -28 -49 -15 -97 -29 -105 -31 -64 -16 -283 -94
-367 -131 -17 -8 -38 -14 -47 -14 -9 0 -16 -4 -16 -10 0 -5 -3 -9 -7 -8 -12 3
-103 -34 -103 -42 0 -4 -6 -7 -12 -7 -20 0 -156 -64 -313 -148 -49 -27 -111
-60 -137 -73 -27 -14 -48 -30 -48 -34 0 -5 -4 -6 -10 -3 -5 3 -10 1 -10 -4 0
-6 -4 -11 -10 -11 -18 0 -369 -230 -390 -256 -7 -7 -18 -14 -25 -14 -8 0 -15
-4 -17 -8 -1 -4 -30 -28 -63 -54 -33 -25 -70 -54 -82 -64 -12 -11 -36 -30 -54
-44 -18 -14 -37 -29 -43 -35 -6 -5 -49 -44 -96 -85 -92 -81 -333 -322 -417
-417 -56 -63 -185 -221 -218 -267 -11 -15 -30 -40 -42 -54 -13 -15 -23 -33
-23 -39 0 -7 -4 -13 -9 -13 -8 0 -60 -73 -86 -122 -5 -10 -13 -18 -17 -18 -5
0 -8 -7 -8 -15 0 -8 -4 -15 -9 -15 -5 0 -14 -13 -21 -30 -7 -16 -16 -30 -20
-30 -4 0 -10 -8 -13 -17 -6 -18 -37 -73 -47 -83 -9 -9 -51 -85 -57 -102 -3
-10 -10 -18 -15 -18 -5 0 -7 -4 -3 -9 3 -5 1 -12 -5 -16 -5 -3 -44 -77 -85
-163 -42 -86 -83 -170 -92 -187 -10 -16 -16 -31 -15 -33 1 -1 -5 -19 -14 -40
-19 -45 -54 -137 -60 -157 -1 -5 -12 -34 -23 -62 -12 -29 -18 -53 -15 -53 4 0
2 -6 -3 -12 -16 -20 -79 -230 -104 -343 -4 -22 -13 -55 -18 -73 -5 -18 -10
-35 -10 -37 0 -3 -2 -18 -5 -33 -4 -15 -9 -43 -12 -62 -10 -67 -11 -75 -14
-75 -3 0 -8 -39 -14 -100 -3 -27 -9 -73 -14 -101 -5 -28 -7 -59 -6 -68 1 -9
-1 -16 -4 -16 -24 0 -21 -715 3 -898 2 -19 7 -64 11 -100 9 -89 12 -117 14
-117 1 0 3 -13 5 -30 5 -51 16 -119 21 -134 3 -8 7 -40 11 -70 3 -31 10 -59
16 -62 5 -4 7 -11 4 -16 -4 -6 -2 -25 3 -44 5 -19 12 -50 15 -69 3 -19 18 -82
32 -140 14 -58 27 -114 28 -125 2 -11 8 -32 13 -46 6 -15 8 -30 5 -33 -4 -3
-1 -6 4 -6 6 0 10 -8 9 -17 -2 -10 3 -33 11 -50 7 -18 10 -33 6 -33 -4 0 -2
-5 5 -12 7 -7 12 -19 12 -28 0 -9 9 -43 19 -76 10 -32 33 -104 51 -159 18 -55
33 -104 34 -110 5 -23 29 -91 36 -100 5 -5 9 -14 9 -20 2 -16 11 -43 63 -185
50 -137 67 -181 100 -257 10 -23 18 -45 18 -48 0 -3 11 -31 25 -61 14 -30 25
-56 25 -58 0 -3 10 -26 22 -53 11 -26 22 -52 24 -58 2 -11 105 -243 150 -340
15 -33 28 -62 29 -65 0 -3 26 -58 58 -124 31 -65 57 -122 57 -127 0 -5 5 -9
10 -9 6 0 10 -9 10 -20 0 -11 5 -20 12 -20 6 0 8 -3 5 -6 -4 -4 9 -36 28 -70
19 -35 31 -64 28 -64 -3 0 0 -7 7 -15 7 -9 45 -80 85 -158 39 -78 77 -153 85
-167 8 -14 15 -27 15 -30 3 -15 59 -116 66 -118 5 -2 9 -11 9 -21 0 -9 4 -21
9 -27 17 -17 62 -104 54 -104 -4 0 -3 -4 3 -8 6 -4 33 -47 59 -97 26 -49 56
-103 65 -120 19 -33 53 -95 108 -195 19 -36 40 -72 47 -80 7 -8 15 -23 18 -33
4 -10 41 -78 84 -150 42 -73 90 -157 106 -187 17 -30 38 -66 49 -79 10 -13 18
-30 18 -37 0 -8 3 -14 8 -14 4 0 13 -15 21 -33 8 -17 17 -34 21 -37 3 -3 19
-27 34 -55 56 -99 140 -240 146 -245 3 -3 11 -16 17 -30 7 -14 23 -42 35 -62
27 -43 118 -195 133 -220 30 -52 102 -170 131 -215 19 -29 34 -57 34 -63 0 -5
3 -10 8 -10 4 0 12 -9 17 -20 6 -11 38 -66 73 -122 83 -136 82 -134 122 -198
37 -58 41 -65 90 -145 17 -27 35 -57 40 -65 17 -27 272 -434 289 -461 96 -158
126 -205 133 -207 4 -2 8 -8 8 -14 0 -5 13 -28 29 -51 15 -23 30 -46 32 -52 2
-5 26 -44 53 -85 27 -41 62 -95 77 -120 16 -25 32 -49 37 -55 4 -5 11 -17 15
-25 4 -8 15 -27 25 -42 9 -14 51 -80 92 -145 41 -65 80 -125 85 -133 6 -9 19
-31 30 -48 11 -18 45 -72 76 -120 216 -336 369 -582 369 -591 0 -6 4 -11 8
-11 5 0 15 -12 23 -27 8 -16 18 -32 22 -38 5 -5 66 -102 137 -215 71 -113 134
-210 140 -217 5 -7 10 -16 10 -21 0 -4 8 -17 18 -28 9 -10 23 -30 29 -44 29
-57 174 -275 184 -275 6 0 21 16 33 36 11 20 32 53 46 75 14 21 32 51 39 67 8
15 18 27 23 27 4 0 8 5 8 10 0 6 20 41 44 78 24 37 105 164 179 282 75 118
140 220 145 226 5 6 13 20 16 32 4 12 12 22 17 22 5 0 9 7 9 15 0 8 3 15 8 15
4 0 13 14 20 30 8 17 19 36 26 43 6 6 23 30 36 52 13 22 42 69 65 105 23 36
60 94 83 130 23 36 46 70 52 77 5 7 10 15 10 18 0 4 14 26 30 50 17 24 30 48
30 54 0 6 3 11 8 11 4 0 16 17 27 38 11 20 25 41 32 45 7 4 13 13 13 18 0 10
80 138 131 211 10 15 19 30 19 33 0 4 13 25 29 48 50 73 101 154 101 161 0 4
5 12 11 19 24 28 108 163 109 175 0 6 4 12 8 12 4 0 26 30 47 66 22 36 48 78
57 92 10 15 25 41 34 57 9 17 20 32 24 35 4 3 9 10 11 15 2 6 56 93 119 193
63 100 120 190 125 199 33 58 130 209 141 221 8 7 14 17 14 22 0 9 61 111 71
120 3 3 13 19 22 36 9 17 34 59 57 92 22 34 40 66 40 72 0 5 5 10 10 10 6 0
10 5 10 10 0 6 26 52 58 103 56 88 353 580 376 622 35 63 102 170 108 173 5 2
6 7 3 12 -3 4 2 13 10 20 8 7 15 19 15 26 0 8 5 14 10 14 6 0 10 5 10 10 0 6
27 55 60 110 33 55 60 103 60 108 0 4 8 17 18 28 9 10 27 39 39 64 13 25 36
68 53 95 17 28 36 61 42 75 7 14 17 32 24 40 10 13 27 43 105 188 9 18 23 39
29 47 7 8 9 15 5 15 -5 0 -1 8 7 18 8 9 34 53 58 97 23 44 50 94 60 110 18 31
108 201 157 295 15 30 31 57 36 58 4 2 7 12 7 23 0 10 5 19 10 19 6 0 10 9 10
19 0 11 4 21 8 23 7 3 266 513 268 527 1 12 49 106 57 112 5 3 9 10 9 15 1 5
7 23 15 41 7 18 13 37 13 43 0 5 5 10 10 10 6 0 10 4 10 10 0 5 32 80 71 167
39 87 72 163 73 169 1 6 10 23 19 37 10 15 15 27 13 27 -3 0 7 26 21 58 34 77
46 105 48 117 2 6 12 31 22 55 11 25 29 68 39 95 10 28 24 61 31 75 7 14 13
30 13 36 0 6 8 29 17 50 9 22 18 44 19 49 1 6 22 62 45 125 23 63 42 121 42
128 0 6 3 12 7 12 3 0 6 8 7 18 1 9 7 31 14 47 7 17 13 35 14 40 2 6 16 53 33
105 36 114 52 173 49 181 -1 3 4 13 12 22 7 10 11 17 7 17 -3 0 -1 12 5 28 11
27 15 43 24 96 3 16 10 38 16 48 6 11 8 22 5 25 -3 4 -1 12 5 20 6 7 9 13 6
13 -3 0 3 29 13 65 10 36 19 66 18 68 -1 10 29 152 32 152 1 0 3 9 4 20 3 24
17 102 23 130 2 11 6 36 9 55 2 19 7 46 10 60 2 14 7 45 9 70 3 25 8 56 11 70
3 14 7 48 10 76 2 27 6 72 9 100 27 226 27 726 0 924 -3 19 -7 55 -10 80 -3
25 -8 59 -11 75 -3 17 -7 46 -9 65 -4 38 -12 80 -21 120 -3 14 -8 39 -11 55
-2 17 -6 37 -9 45 -3 8 -8 26 -10 40 -15 81 -121 440 -151 510 -3 8 -7 20 -9
25 -10 38 -91 226 -160 372 -25 51 -44 96 -43 99 0 4 -3 10 -8 13 -5 3 -28 40
-50 81 -78 146 -97 177 -220 363 -69 103 -129 187 -134 187 -5 0 -9 5 -9 10 0
12 -56 84 -175 225 -80 96 -132 151 -270 290 -176 176 -236 229 -445 397 -75
60 -306 224 -352 251 -21 11 -38 24 -38 29 0 4 -5 8 -11 8 -6 0 -23 8 -37 19
-54 37 -360 210 -427 240 -11 5 -64 30 -118 55 -55 25 -101 46 -103 46 -4 0
-37 14 -119 51 -11 5 -69 27 -130 49 -60 23 -117 44 -125 47 -8 3 -23 8 -33
10 -10 1 -31 10 -48 18 -16 9 -29 13 -29 11 0 -3 -26 4 -57 15 -32 11 -66 21
-78 24 -21 5 -89 22 -115 30 -27 8 -104 27 -130 31 -14 3 -43 10 -65 16 -22 6
-49 12 -60 13 -11 1 -20 3 -20 5 0 1 -13 3 -30 5 -31 4 -57 9 -110 19 -29 6
-98 16 -140 21 -11 1 -20 3 -20 4 0 1 -16 4 -35 5 -106 10 -199 19 -225 23
-36 5 -611 13 -617 9z m167 -1560 c20 8 185 10 185 2 0 -4 13 -3 29 2 16 4 32
6 34 4 2 -3 38 -7 78 -10 90 -5 174 -12 174 -14 0 -1 14 -3 30 -5 74 -9 112
-14 135 -19 14 -2 41 -7 61 -10 20 -3 42 -8 50 -10 8 -3 25 -8 39 -10 39 -8
59 -13 145 -36 44 -12 85 -23 90 -24 6 -2 17 -5 25 -8 46 -17 206 -73 210 -73
3 -1 26 -11 52 -23 26 -12 49 -22 52 -22 3 0 33 -13 66 -29 33 -16 60 -26 60
-23 0 4 4 3 8 -3 4 -5 41 -27 82 -48 41 -21 98 -52 125 -68 28 -16 57 -33 65
-36 8 -4 20 -11 25 -15 29 -24 158 -108 166 -108 5 0 9 -3 9 -7 0 -5 17 -19
38 -33 20 -14 39 -27 42 -30 3 -3 25 -21 50 -40 90 -70 186 -158 295 -270 131
-135 155 -161 155 -169 0 -4 9 -16 21 -27 11 -10 43 -50 72 -89 28 -38 54 -72
57 -75 14 -14 110 -160 110 -168 0 -6 4 -12 8 -14 10 -4 116 -189 154 -268 80
-168 100 -211 102 -222 1 -7 4 -17 7 -23 8 -13 33 -89 30 -93 -1 -1 5 -10 14
-18 8 -9 13 -20 10 -24 -3 -5 -1 -17 4 -27 10 -18 58 -171 65 -208 2 -11 13
-58 24 -105 11 -47 23 -102 26 -124 4 -21 8 -41 10 -45 2 -3 7 -33 10 -66 4
-33 9 -73 11 -90 3 -16 8 -55 11 -85 9 -77 9 -533 0 -600 -3 -30 -8 -73 -10
-95 -4 -43 -13 -105 -21 -145 -3 -13 -7 -42 -10 -65 -3 -22 -8 -48 -11 -57 -3
-9 -7 -26 -9 -39 -2 -12 -14 -58 -26 -103 -11 -45 -22 -88 -24 -96 -2 -8 -15
-49 -29 -90 -15 -41 -27 -77 -27 -80 -4 -18 -59 -159 -84 -215 -112 -248 -216
-429 -348 -608 -70 -95 -82 -111 -98 -128 -9 -9 -21 -24 -25 -32 -34 -60 -318
-343 -429 -428 -16 -13 -34 -29 -38 -36 -4 -7 -12 -13 -18 -13 -5 0 -22 -11
-37 -25 -15 -14 -52 -42 -82 -62 -30 -21 -56 -41 -58 -45 -2 -5 -10 -8 -18 -8
-8 0 -14 -4 -14 -10 0 -5 -7 -10 -15 -10 -8 0 -15 -3 -15 -7 0 -5 -10 -13 -23
-19 -12 -6 -51 -29 -87 -51 -101 -62 -200 -114 -200 -106 0 5 -4 2 -8 -5 -9
-13 -226 -110 -310 -139 -26 -8 -58 -20 -72 -26 -26 -10 -30 -12 -65 -21 -11
-3 -67 -20 -125 -37 -58 -17 -114 -32 -125 -34 -18 -3 -77 -15 -141 -29 -30
-6 -88 -15 -137 -21 -23 -3 -53 -7 -67 -10 -96 -19 -554 -26 -685 -11 -33 4
-80 9 -105 12 -67 7 -91 11 -151 23 -30 5 -67 12 -84 15 -44 7 -70 13 -175 41
-52 14 -103 27 -113 30 -26 6 -198 64 -224 75 -49 21 -69 29 -105 41 -21 7
-38 17 -38 21 0 4 -7 8 -15 8 -39 0 -512 264 -523 292 -2 4 -8 8 -13 8 -6 0
-15 5 -22 10 -19 16 -83 64 -107 80 -12 8 -28 20 -34 26 -6 5 -42 36 -81 69
-126 104 -347 334 -444 460 -17 22 -35 45 -40 51 -5 6 -26 35 -47 65 -21 30
-42 56 -46 57 -5 2 -8 9 -8 16 0 7 -9 21 -20 31 -11 10 -18 20 -16 23 3 2 0
10 -7 17 -18 20 -77 119 -76 129 0 5 -4 12 -9 15 -11 7 -112 202 -112 216 0 5
-6 16 -13 24 -7 9 -23 43 -36 76 -13 33 -30 74 -37 90 -28 62 -104 297 -120
366 -2 11 -6 27 -8 37 -2 9 -9 37 -16 62 -7 25 -14 54 -15 65 -2 11 -11 63
-21 115 -9 52 -17 104 -19 115 -1 11 -5 49 -9 85 -11 99 -16 202 -16 335 0
281 23 466 96 788 1 4 2 8 4 10 1 1 3 11 5 22 4 21 17 68 43 150 9 28 17 55
18 60 10 39 80 211 88 217 6 4 7 8 3 8 -4 0 -2 10 5 23 7 12 13 24 13 27 0 3
17 40 38 82 20 42 37 81 37 86 0 6 3 12 8 14 7 3 46 70 71 126 8 17 19 32 23
32 4 0 8 5 8 11 0 6 14 30 30 54 17 24 30 46 30 50 0 5 9 18 36 48 6 7 15 23
18 35 4 12 12 20 17 17 5 -4 9 -1 9 5 0 13 95 141 143 191 9 11 17 21 17 24 0
10 209 225 302 311 99 92 392 314 413 314 3 0 15 9 27 20 12 10 25 17 30 14 4
-3 8 -1 8 4 0 4 34 26 75 48 41 21 75 42 75 47 0 4 7 7 15 7 8 0 30 9 48 19
19 11 43 24 53 29 29 16 118 55 129 58 6 1 35 13 65 27 59 26 165 67 190 72 8
2 26 8 40 13 14 5 27 10 30 10 3 0 12 3 20 6 24 8 169 47 193 52 12 2 32 6 44
8 13 3 26 7 30 9 5 3 28 8 53 11 25 3 56 9 70 12 14 3 40 7 59 9 19 2 50 7 70
10 38 6 149 16 218 19 24 2 46 6 50 10 4 4 9 3 11 -3 2 -5 9 -8 17 -5z"/>
<path d="M5725 11390 c-75 -36 -108 -79 -120 -160 -4 -25 -8 -47 -10 -49 -2
-1 0 -13 5 -25 4 -13 4 -29 -1 -39 -6 -10 -6 -17 -1 -17 5 0 7 -12 5 -27 -2
-16 -4 -32 -4 -38 0 -5 2 -22 4 -37 2 -16 0 -28 -5 -28 -5 0 -6 -5 -2 -11 10
-16 11 -49 3 -79 -3 -14 -3 -34 1 -45 4 -11 3 -28 -2 -37 -5 -11 -5 -18 0 -18
5 0 7 -12 5 -27 -2 -16 -4 -32 -4 -38 0 -5 2 -22 4 -37 2 -16 0 -28 -5 -28 -5
0 -5 -8 -1 -17 5 -10 7 -43 6 -73 -4 -68 -4 -69 0 -100 2 -14 -1 -31 -6 -37
-5 -7 -6 -13 -1 -13 5 0 9 -16 9 -35 0 -19 -4 -35 -8 -35 -5 0 -5 -6 0 -12 10
-18 11 -119 1 -140 -5 -10 -5 -18 0 -18 5 0 7 -12 5 -27 -2 -16 -4 -48 -3 -73
1 -44 1 -58 -1 -82 0 -7 2 -25 4 -40 2 -16 0 -28 -6 -28 -6 0 -6 -5 0 -12 5
-7 8 -24 6 -38 -4 -29 -4 -28 0 -95 2 -27 -1 -58 -5 -67 -5 -10 -5 -18 0 -18
5 0 7 -12 5 -27 -2 -16 -4 -41 -3 -58 1 -16 2 -36 1 -42 -2 -24 -1 -38 2 -63
2 -14 -1 -31 -6 -37 -5 -7 -6 -13 -1 -13 5 0 9 -16 9 -35 0 -19 -4 -35 -8 -35
-5 0 -5 -6 0 -12 10 -17 11 -67 1 -95 -4 -13 -3 -23 2 -23 5 0 7 -9 5 -19 -2
-11 3 -25 11 -32 10 -8 14 -8 14 0 0 7 8 8 25 1 15 -6 27 -6 30 0 3 5 16 6 28
2 25 -9 74 -8 83 1 4 4 15 2 25 -4 13 -7 19 -6 19 1 0 7 6 8 19 0 13 -6 22 -7
26 0 3 6 15 6 30 0 15 -6 27 -6 30 1 4 6 13 6 23 0 9 -5 26 -5 39 0 15 5 23 5
23 -2 0 -6 4 -7 10 -4 15 9 81 12 86 4 3 -5 16 -4 29 1 14 5 25 6 25 2 0 -8
89 -7 97 2 3 3 14 1 24 -5 13 -7 19 -6 19 1 0 7 6 8 19 0 13 -6 22 -7 26 0 3
6 15 6 30 0 15 -6 27 -6 30 1 4 6 13 6 23 0 9 -5 26 -5 39 0 15 5 23 5 23 -2
0 -6 4 -7 10 -4 15 9 81 12 86 4 3 -5 16 -4 29 1 14 5 25 6 25 2 0 -8 89 -7
97 2 3 3 14 1 24 -5 13 -7 19 -6 19 1 0 7 6 8 19 0 13 -6 22 -7 26 0 3 6 15 6
30 0 15 -6 27 -6 30 1 4 6 13 6 23 0 9 -5 26 -5 39 0 15 5 23 5 23 -2 0 -6 4
-7 10 -4 15 9 81 12 86 4 3 -5 16 -4 29 1 14 5 25 6 25 2 0 -8 89 -7 97 2 3 3
14 1 24 -5 13 -7 19 -6 19 1 0 7 6 8 19 0 13 -6 22 -7 26 0 3 6 15 6 30 0 15
-6 27 -6 30 1 4 6 13 6 23 0 9 -5 26 -5 39 0 15 5 23 5 23 -2 0 -6 4 -7 10 -4
15 9 81 12 86 4 3 -5 16 -4 29 1 14 5 25 6 25 2 0 -8 89 -7 97 2 3 3 14 1 24
-5 13 -7 19 -6 19 1 0 7 6 8 19 0 13 -6 22 -7 26 0 3 6 15 6 30 0 15 -6 27 -6
30 1 4 6 13 6 23 0 9 -5 26 -5 39 0 15 5 23 5 23 -2 0 -6 4 -7 10 -4 15 9 81
12 86 4 3 -5 16 -4 29 1 14 5 25 6 25 2 0 -8 89 -7 97 2 3 3 14 1 24 -5 13 -7
19 -6 19 1 0 7 6 8 19 0 13 -6 22 -7 26 0 3 6 15 6 30 0 15 -6 27 -6 30 1 4 6
13 6 23 0 9 -5 26 -5 39 0 15 5 23 5 23 -2 0 -6 4 -7 10 -4 15 9 81 12 86 4 3
-5 16 -4 29 1 14 5 25 6 25 2 0 -8 89 -7 97 2 3 3 14 1 24 -5 13 -7 19 -6 19
1 0 7 6 8 19 0 13 -7 22 -7 26 0 4 7 12 7 25 0 13 -7 21 -7 25 0 4 6 11 7 17
4 16 -10 70 -7 77 4 3 6 6 468 5 1029 0 961 -1 1020 -18 1053 -25 48 -77 94
-123 108 -28 9 -413 12 -1523 11 -1437 0 -1486 -1 -1525 -19z m2852 -1087 l0
-768 -1311 0 c-721 0 -1316 3 -1321 7 -11 7 -13 134 -2 144 3 3 3 16 -1 28 -4
11 -6 100 -5 196 4 208 4 172 1 303 -2 60 0 111 4 113 4 3 4 15 0 27 -4 12 -6
65 -5 117 4 112 4 89 1 223 -2 60 0 111 4 113 4 3 3 16 -2 30 -6 16 -7 32 -1
42 5 9 6 25 2 36 -6 17 -7 111 -2 149 1 4 594 7 1320 7 l1318 0 0 -767z"/>
<path d="M5611 9051 c-7 -5 -33 -48 -37 -61 0 -3 -9 -23 -19 -45 -31 -70 -38
-90 -37 -97 1 -5 -2 -8 -8 -8 -6 0 -10 -8 -10 -18 0 -10 -5 -23 -12 -30 -7 -7
-9 -12 -5 -12 4 0 -1 -17 -11 -37 -25 -49 -129 -324 -133 -351 0 -4 -5 -12 -9
-17 -5 -6 -11 -22 -13 -35 -3 -14 -10 -36 -15 -50 -32 -77 -32 -83 -9 -139 16
-41 65 -96 76 -86 2 3 10 0 18 -7 10 -8 490 -11 1851 -10 1010 0 1849 2 1865
5 65 13 126 92 122 157 -2 19 -15 67 -30 105 -14 39 -28 75 -29 80 -5 17 -50
140 -66 180 -4 11 -20 52 -35 90 -16 39 -36 89 -47 112 -10 23 -18 45 -18 49
0 4 -16 41 -36 83 -20 42 -37 81 -39 86 -1 6 -7 21 -12 35 l-10 25 -1642 1
c-903 0 -1645 -2 -1650 -5z m1932 -670 c4 -1 7 -5 7 -10 0 -5 8 -26 17 -47 9
-22 16 -42 15 -46 -1 -5 3 -8 10 -8 6 0 9 -3 5 -6 -3 -4 0 -19 8 -35 8 -15 12
-30 7 -32 -10 -7 -715 -6 -725 0 -4 3 -4 10 1 16 5 7 19 39 32 72 13 33 28 66
33 73 5 6 6 12 1 12 -5 0 -4 4 3 8 8 5 545 8 586 3z"/>
</g>
</svg>
