<svg xmlns="http://www.w3.org/2000/svg" viewBox="0 0 449.99644 347.61261"><title>Middel 1</title><g id="e949fef9-4b43-447a-9fda-0a6b0d61a014" data-name="Laag 2"><g id="a88e5aad-2669-4e90-86de-17bedf66a749" data-name="Laag 1"><path d="M12.55013,284.7408c4.133,30.3,30.073,52.1,30.073,52.1h377.489s13.483-20.889,18.319-52.1c.293-1.919.557-3.865.791-5.863,35.026-108.544-22.935-137.478-65.465-138.278-25.866-.487-65.025-11.8-97.97-33.837a255.85227,255.85227,0,0,1-22.51-17.839,127.28089,127.28089,0,0,1-28.109-37.9c-27.683-58.775-110.852-63.218-145.673-31.418s-18.8,107.321-18.8,107.321c7.005,38.741-12.091,82.121-35.817,112.554C13.29713,255.4918,10.68913,270.9908,12.55013,284.7408Z" fill="#cdf2f7"/><path d="M57.34413,284.6728c3.71,30.338,26.993,52.161,26.993,52.161h338.829s12.1-20.914,16.443-52.161Z" fill="#9dd"/><path d="M402.20911,304.76478s-13.136-17.626-5.236-36.941a39.412,39.412,0,0,0-2.373-34.841s16.189,12.632,16.618,30.44-13.2,20.5-5.6,42.084Z" fill="#4c857a"/><path d="M396.59814,306.02678s10.085-22.556-3.182-36.794-7.227-28.51-7.227-28.51-14.779,20.658-.489,36.419,7.5,32.209,7.5,32.209Z" fill="#5ea49b"/><path d="M411.13113,306.34782s-2.383-19.385,7.944-32.731,2.383-27.647-1.43-31.143c0,0,3.589,11.281-5.514,18.431s-10.375,26.376-3.225,44.887Z" fill="#5ea49b"/><path d="M415.67316,302.69481l-.5,4.671-1.878,17.322h-22.247l-1.9-17.322-.515-4.671Z" fill="#6b4e2f"/><path d="M415.67316,302.69481l-.5,4.671h-26.021l-.515-4.671Z" fill="#cfd1d2"/><path d="M417.90012,304.99081h-31.778l-.954-10.169h33.685Z" fill="#6b4e2f"/><path d="M295.77813,265.31181l9.908,55.837h3.587l-9.783-80.862h-8.151l3.659,20.623h-38.248l3.392-17.526-6.847-3.75-12.392,84.613h3.587l4.7-24.286,26.6,2.514.347-3.677-26.24-2.48,6-31.006Z" fill="#434244"/><path d="M333.30314,326.12181h3.587l-12.392-84.612-6.847,3.75,3.881,20.052h-38.576l3.255-18.341h-8.153l-9.783,80.863h3.587l10.27-57.876h40.3Z" fill="#59595b"/><path d="M321.01411,167.12182l12.36-8.107s10.968-3.513,14.938,8.51c3.465,11.137,3.443,77.878-13.885,84.677s-22.541-29.35-22.541-29.35Z" fill="#e86138"/><path d="M286.3861,240.61177s1.062-48.185,27.709-71.213c32.578-24.725,33.223-.492,24.784,15.5-9.144,17.94-9.808,42.7-2.433,63.854Z" fill="#d35b30"/><path d="M262.48714,236.24483l-18.938,8.8s-2.475,7.64,9.373,11.218,70.884-.529,78.4-3,8.3-8.809,8.3-8.809-6.733-5.654-20.526-6.271S262.48714,236.24483,262.48714,236.24483Z" fill="#e86138"/><path d="M324.96813,236.5638c-12.987-5.819-31.854-7.24-53.2-4.444-25.724,2.909-38.64,15.557-24.583,19.971s35.565.576,46.357-4.072,33.292-10.378,40.643-6.4C334.18214,241.61979,331.46214,238.9368,324.96813,236.5638Z" fill="#bf4925"/><path d="M387.42012,329.47883l-36.295-115.3h-9.527l41,115.3Z" fill="#7f5e40"/><path d="M136.00413,329.47883l36.29-115.3h9.535l-41,115.3Z" fill="#7f5e40"/><path d="M383.24613,210.1028h-231.947a4.226,4.226,0,0,0,0,8.451h231.947a4.226,4.226,0,1,0,.1297-8.451Q383.311,210.10181,383.24613,210.1028Z" fill="#b8996e"/><path d="M193.9793,177.177c3.70694-.159,4.31986,6.38422,4.23345,11.52778l7.79488-6.63892,15.394,19.9618L211.503,218.70776,189.1208,196.44884S186.92844,177.48257,193.9793,177.177Z" fill="#ffc1ac" stroke="#855a4c" stroke-miterlimit="10"/><path d="M216.159,213.47038h0a6.938,6.938,0,0,0,3.416-9.198q-.06439-.14047-.135-.278l-17.4481-35.25978-8.64917,3.03774,13.4955,37.99817a6.939,6.939,0,0,0,9.03847,3.8217Q216.01922,213.53445,216.159,213.47038Z" fill="#1f2f6d"/><path d="M162.01024,157.43529a25.788,25.788,0,1,0,13.25508-34.40845c-.1947.08278-.38113.169-.57164.2545a25.737,25.737,0,0,0-12.70475,34.10829l.02138.04666Z" fill="#cdf2f7"/><path d="M172.87361,119.31614a30.135,30.135,0,1,1-14.82808,39.95453l-.00349-.00763A30.138,30.138,0,0,1,172.87361,119.31614Zm-10.86687,38.12691a25.788,25.788,0,1,0,13.25508-34.40845c-.1947.08278-.38114.169-.57164.2545A25.736,25.736,0,0,0,161.99,157.39759l.02072.04518Z" fill="#1f2f6d"/><path d="M199.607,197.49872s-3.59723.16533-4.89391-1.56242.69725-4.45048.69725-4.45048-3.74869,1.1102-3.61176-1.79142c.14781-3.17605,13.3385-12.90188,18.93647-11.90795,7.04241,1.25079,11.6871,17.82818,11.37329,23.146-.16992,2.90292-12.95058,4.85922-15.24459,5.42663-2.3975.59268-7.32268-.06937-3.73445-3.02988C203.12928,203.32922,195.053,203.77969,199.607,197.49872Z" fill="#ffc1ac" stroke="#855a4c" stroke-miterlimit="10"/><path d="M84.92744,178.19918s45.50625,60.74563,49.41977,63.56951S186.118,194.64255,186.118,194.64255l25.84736,23.67365s-40.31341,57.12427-69.23685,75.259c-22.27984,13.96919-60.36146-40.074-70.25423-52.92824S51.148,155.25963,84.92744,178.19918Z" fill="#756666" stroke="#1d262d" stroke-miterlimit="10"/><path d="M195.41316,191.50086c1.36341-.72988,2.73116-1.41195,4.08959-2.09838,1.36766-.669,2.73651-1.32111,4.12836-1.91665,1.38091-.62285,2.79711-1.15694,4.22126-1.67755s2.88372-.95047,4.36784-1.4021a19.86545,19.86545,0,0,0-4.6088.59394,26.97311,26.97311,0,0,0-4.40645,1.495A27.26407,27.26407,0,0,0,195.41316,191.50086Z" fill="#855a4c"/><path d="M215.70935,191.72389a22.022,22.022,0,0,0-8.47331,1.4095,31.34009,31.34009,0,0,0-7.66279,3.869c2.72635-.90739,5.35589-1.92329,8.02077-2.84944A78.08585,78.08585,0,0,1,215.70935,191.72389Z" fill="#855a4c"/><path d="M214.34591,199.30357a18.1,18.1,0,0,0-5.88267,1.24238,22.39982,22.39982,0,0,0-5.33418,2.74979,41.80034,41.80034,0,0,0,5.70857-1.73945C210.68974,200.86241,212.50034,200.14836,214.34591,199.30357Z" fill="#855a4c"/><path d="M101.97655,163.657c-.65839-.24066-45.5478-18.161-87.06456-5.43994l9.66341,30.07418,54.73569,9.95408Z" fill="#1d262d"/><path d="M55.45885,219.26078l-8.0202-52.26285,54.50077-3.99953s-7.046,25.247-8.422,27.3882c0,0,8.86441,11.2651,11.83041,30.72961.50331,3.327,22.99131,117.95756,22.99131,117.95756l-48.332,3.37971S54.80952,238.08694,55.45885,219.26078Z" fill="#756666"/><path d="M113.19082,261.68066l7.36514,38.7376,7.466,38.71851.29483-.3855L79.97823,342.0362l.43214.31663q-7.25058-30.57672-13.85908-61.30358c-2.178-10.245-4.36982-20.48808-6.30633-30.77807q-.75786-3.85653-1.42-7.71975c-.44971-2.5749-.92935-5.14771-1.299-7.73924-.39327-2.58486-.82145-5.16728-1.07712-7.76277-.12959-1.29412-.33875-2.59369-.40422-3.88827l-.15416-3.88171-.00467-.06684-.001-.014-8.12019-52.24483-.305.38321,27.24632-2.05061L101.947,163.161l-.16115-.19723q-1.89959,6.91035-3.882,13.7974L95.86621,183.632a58.19937,58.19937,0,0,1-2.35306,6.76161A58.25388,58.25388,0,0,0,95.94,183.655l2.11411-6.85316q2.06743-6.86093,4.03312-13.75784l.06031-.21272-.22245.01555L74.6654,164.72089,47.412,166.66974l-.35912.02511.054.3571,7.92479,52.27453-.00558-.0798.14133,3.97081c.0623,1.32087.26619,2.61681.39283,3.92616.24844,2.621.665,5.20931,1.053,7.80456.36126,2.60014.83127,5.17863,1.27263,7.76314s.89555,5.16612,1.39329,7.73967c1.91667,10.3074,4.01815,20.57683,6.23309,30.82027q6.67748,30.724,14.09268,61.27519l.082.34111.34914-.02441,48.326-3.46549.36711-.02567-.07128-.35991-7.68357-38.67523Z" fill="#1d262d"/><path d="M77.93481,187.07816s-6.29646-2.152-22.82335-4.16807c-21.95308-2.67515-40.95919,5.77122-40.48058,10.98153,1.05877,11.51419,63.45877,34.752,62.57505,15.5629Z" fill="#ee704f"/><path d="M33.25605,135.35447,22.98288,182.25835l41.05267,18.97553,8.47611-40.133S49.29534,128.4478,33.25605,135.35447Z" fill="#ffc1ac" stroke="#855a4c" stroke-miterlimit="10"/><path d="M15.28281,104.70394S-3.97358,111.52081.74418,117.10131s25.865-12.87361,25.865-12.87361Z" fill="#564242"/><path d="M25.11828,111.94014c-1.62328,25.9284,13.13486,52.95375,25.1782,65.397,8.01624,8.282,40.72568,8.981,44.391-.87569,6.32608-17.00672,2.20736-71.89311.58006-84.32688S57.29741,77.0294,41.3433,80.48071,26.00383,97.81094,25.11828,111.94014Z" fill="#ffc1ac"/><path d="M61.07324,182.0503c12.72722,2.91329,30.91938,1.34846,33.59722-5.8579,6.32615-17.00571,2.20729-71.8941.58-84.32788" fill="#ffc1ac"/><path d="M61.07484,182.05066a58.29969,58.29969,0,0,0,14.99569,1.60787,48.55657,48.55657,0,0,0,7.54758-.72826,25.24809,25.24809,0,0,0,7.26847-2.32569,10.30008,10.30008,0,0,0,3.099-2.388A6.36219,6.36219,0,0,0,95.04,176.49484c.22649-.6173.37858-1.22339.57329-1.83647l.54536-1.83451c.14826-.61784.25094-1.24253.3779-1.8639.22259-1.24656.53707-2.48351.66064-3.7412l.48583-3.76105.32567-3.7719c.25028-2.51358.29665-5.033.44447-7.5494.29257-10.08.05619-20.155-.47832-30.20722-.57134-10.04862-1.32808-20.09631-2.72309-30.06829q.72569,7.51067,1.143,15.04091c.30976,5.01761.57663,10.03823.75245,15.0612.36139,10.04225.60342,20.09786.22928,30.1294-.13071,2.50321-.1594,5.01734-.392,7.51164l-.29942,3.746-.4592,3.72611c-.11309,1.24994-.41641,2.46-.62722,3.68874-.12174.61-.21479,1.229-.35925,1.82952l-.51992,1.78261c-.17949.587-.33182,1.20408-.534,1.76755a5.7701,5.7701,0,0,1-.89837,1.48829,9.4599,9.4599,0,0,1-2.80293,2.235,24.5309,24.5309,0,0,1-7.00074,2.38416,48.986,48.986,0,0,1-7.43574.87983A61.07778,61.07778,0,0,1,61.07484,182.05066Z" fill="#855a4c"/><path d="M39.43594,135.16326l-7.81178,1.02141-9.88511-.244s-10.44672-43.55538-.09638-52.59941,19.96425-1.396,18.66972,10.88418S35.29128,121.0921,39.43594,135.16326Z" fill="#ad6800"/><path d="M68.59268,153.84935c1.98693-3.855,8.365-3.31759,10.1475-3.08537,1.73294-.477,7.9741-1.89687,10.47828,1.64508,3.89568,5.50767,5.8707,4.2348,5.8707,4.2348s-1.60594,10.60786-15.57178,5.249c-13.08033,7.2471-16.151-3.03375-16.151-3.03375S65.50243,159.84552,68.59268,153.84935Z" fill="#ad6800"/><path d="M72.8638,150.27935s10.28915,2.38106,13.79227.06706-4.49115-15.34208-9.42759-23.677" fill="#ffc1ac"/><path d="M72.86357,150.2785a33.87465,33.87465,0,0,0,10.06505,1.49855,11.5,11.5,0,0,0,2.60864-.3829,5.04922,5.04922,0,0,0,1.28141-.5407,2.284,2.284,0,0,0,1.01174-1.21454,5.449,5.449,0,0,0,.07512-2.782,16.22655,16.22655,0,0,0-.71172-2.50847,56.20817,56.20817,0,0,0-4.53257-9.12505c-1.70778-2.919-3.54114-5.756-5.433-8.55485l4.75465,8.93209a78.95348,78.95348,0,0,1,4.20922,9.10255,17.26625,17.26625,0,0,1,.65587,2.355,4.50486,4.50486,0,0,1-.00538,2.21677,1.217,1.217,0,0,1-.56922.69039,4.74417,4.74417,0,0,1-1.03128.46206,10.56328,10.56328,0,0,1-2.37175.4305,29.72379,29.72379,0,0,1-4.98547-.03332C76.21639,150.70366,74.538,150.51227,72.86357,150.2785Z" fill="#855a4c"/><path d="M62.43365,126.88464c.1423,3.18182-1.14188,5.81883-2.87152,5.89867s-3.2488-2.4353-3.39388-5.61393,1.13889-5.81862,2.86561-5.89726S62.28558,123.70623,62.43365,126.88464Z" fill="#1d262d"/><path d="M86.85363,125.77166c.1423,3.18183-1.1428,5.8199-2.87152,5.89868s-3.24979-2.43524-3.39487-5.61386,1.13988-5.81869,2.8666-5.89733S86.70456,122.59332,86.85363,125.77166Z" fill="#1d262d"/><path d="M50.653,119.03144s7.59152-14.163,14.91717.37034A20.486,20.486,0,0,0,50.653,119.03144Z" fill="#ad6800"/><path d="M76.057,119.57746s7.59153-14.163,14.91717.37034A20.486,20.486,0,0,0,76.057,119.57746Z" fill="#ad6800"/><path d="M37.23414,143.72246s-12.9765,7.37014-19.38787-2.93372,3.33247-26.24339,16.91246-11.46468" fill="#ffc1ac"/><path d="M37.23411,143.7232a23.618,23.618,0,0,1-6.694,2.069,13.9001,13.9001,0,0,1-6.81562-.54489,10.768,10.768,0,0,1-5.166-4.25,12.984,12.984,0,0,1-.88046-12.93509,7.745,7.745,0,0,1,4.97052-4.12277,9.263,9.263,0,0,1,6.54727,1.13705,24.2281,24.2281,0,0,1,5.56368,4.24524,21.81672,21.81672,0,0,0-5.288-4.73265,9.975,9.975,0,0,0-7.01572-1.5143,8.581,8.581,0,0,0-5.66647,4.50625,12.809,12.809,0,0,0-1.444,7.11807,13.821,13.821,0,0,0,2.43686,6.82263,11.086,11.086,0,0,0,5.69187,4.42975,13.948,13.948,0,0,0,7.14393.29438A21.98585,21.98585,0,0,0,37.23411,143.7232Z" fill="#855a4c"/><path d="M18.89452,129.65279a11.11814,11.11814,0,0,1,3.61534-3.13183,5.645,5.645,0,0,1,4.47969-.34733,9.531,9.531,0,0,1,3.79485,2.66077c.49174.62422,1.03463,1.20576,1.50517,1.85652l1.36228,1.97779.62874-.5131a16.38523,16.38523,0,0,0-2.68675-1.8952,11.2999,11.2999,0,0,0-3.05741-1.20366,7.04391,7.04391,0,0,0-3.27912-.0163,6.211,6.211,0,0,0-2.74283,1.68944,6.582,6.582,0,0,1,2.81385-1.34756,7.33,7.33,0,0,1,3.06278.23392,11.66,11.66,0,0,1,2.82522,1.29508A15.69149,15.69149,0,0,1,33.722,132.755l.016.01391a.407.407,0,0,0,.61294-.524l-1.36278-2.071c-.463-.68637-1.05817-1.28431-1.588-1.92291a10.2999,10.2999,0,0,0-4.18123-2.79614,6.147,6.147,0,0,0-4.94195.6463,8.91511,8.91511,0,0,0-1.91814,1.58467,9.677,9.677,0,0,0-1.466,1.97206Z" fill="#855a4c"/><path d="M101.55415,101.32683l-86.25166,3.59035S16.44146,51.07557,58.49,49.94466C96.26419,48.9292,101.55415,101.32683,101.55415,101.32683Z" fill="#564242"/><path d="M53.21956,49.3488a3.6,3.6,0,1,0,3.34011-3.84235,3.6,3.6,0,0,0-3.34011,3.84235Z" fill="#564242"/><path d="M101.54214,101.10133s30.24743,9.65858,18.697,12.2055c-18.95456,4.18039-46.65858,6.60984-66.54053-10.21325Z" fill="#564242"/><path d="M61.465,50.01344c35.1029,2.18467,40.0911,51.31339,40.0911,51.31339l-47.83965,1.991h0S46.699,78.33947,61.465,50.01344Z" fill="#756666"/><path d="M15.05466,157.61508l52.61881,9.90061-5.42118,24.25625,14.84849,16.67684,24.98434,132.525L7.01663,347.61261S.81663,265.1843.35991,233.78067c-.36032-24.87847-2.39394-45.70334,14.4036-52.633Z" fill="#867575"/><path d="M6.82105,347.56322l23.78072-1.47946q11.89173-.72028,23.77555-1.53925l47.545-3.19435.47684-.03334-.08715-.47207-6.1605-33.151c-2.02579-11.0506-4.18177-22.08509-6.28067-33.12056L77.204,208.34341l-.01584-.0831-.05548-.06228q-7.43308-8.32876-14.92726-16.59916l.04378.16735,5.23764-24.30055-5.60863,24.21322-.02159.09274.06537.07461q7.34342,8.40822,14.76046,16.75118l-.07125-.14439,12.31867,66.2972c2.06861,11.04661,4.07386,22.10467,6.21168,33.13742l6.3334,33.11487.38777-.50428L54.33526,343.943q-11.88328.841-23.75974,1.77973Z" fill="#1d262d"/><path d="M152.67821,262.63063l.5199,7.43485s-5.23254-4.67038-6.77208-14.80267-11.7756-12.95813-17.0069-12.59333l.23355,3.33985s10.37848-.08317,13.48818,12.70606,3.17708,23.73018,11.04134,25.39465c0,0,.96732,5.05985,11.14536,5.03481,5.797-.01642,10.604-2.67823,10.14166-9.29008l-1.30932-18.72428Z" fill="#1d262d"/><path d="M136.0618,286.71058c-6.167,3.77037-34.45548,11.87642-58.07235-.88724C57.97712,275.006,44.5354,246.07715,38.1233,213.90106c-4.43522-22.25482-18.16341-21.778-24.619-20.34221S-1.71658,197.96232,8.748,242.132s36.44971,73.25384,59.92616,78.96311,52.48129,10.09869,87.36043-17.00738c7.79637-6.05861,8.89119-10.32838,13.696-8.4209s8.25132-1.17244,6.848-4.20995c0,0,7.99039-.73216,3.34155-6.101,0,0,2.42348-5.726-4.60267-7.31776,0,0,2.99421-3.98658-5.47849-6.66808s-17.70157,2.9179-19.46128,3.041a18.6521,18.6521,0,0,1-4.08243-4.69466s-3.75027,1.21657-2.8874,5.80055C144.09287,279.163,142.229,282.9432,136.0618,286.71058Z" fill="#ffc1ac" stroke="#855a4c" stroke-miterlimit="10"/><path d="M155.72336,308.48981,138.98,281.01484a59.657,59.657,0,0,1-47.13624,6.144c-26.62472-7.75364-46.48439-38.72274-51.18571-69.09779C36.575,191.68163,25.20344,189.49054,14.3578,191.093c-13.9115,2.05543-18.32024,18.15418-5.69838,61.8652s45.99392,72.393,82.38471,75.37676C122.656,330.92713,155.72336,308.48981,155.72336,308.48981Z" fill="#867575"/><path d="M8.65463,252.95946l1.77424,5.58985c.30541.927.56947,1.86482.90944,2.78435l1.07182,2.72687c.73984,1.80679,1.37473,3.661,2.20119,5.43068L17.12205,274.79c.21317.4392.409.88864.63769,1.32073l.717,1.2791,1.435,2.55814,1.435,2.55913c.48634.84814,1.05826,1.64419,1.58406,2.46852,1.08922,1.628,2.11119,3.29776,3.25468,4.88486l3.57691,4.66185A107.5744,107.5744,0,0,0,46.47983,310.9622,92.30017,92.30017,0,0,0,66.76254,322.736a77.5331,77.5331,0,0,0,22.71924,5.84743,75.355,75.355,0,0,0,23.42379-1.43746c15.3781-3.2737,29.87748-9.82408,43.08933-18.25824l.38375-.24637-.24549-.39985-16.80632-27.42946-.21607-.35179-.35914.2256a53.031,53.031,0,0,1-11.29324,5.25057,59.75425,59.75425,0,0,1-12.17817,2.7883,58.443,58.443,0,0,1-24.74341-2.29558,58.81494,58.81494,0,0,1-21.34427-12.79126,86.40007,86.40007,0,0,1-15.69018-19.55314A86.56294,86.56294,0,0,0,68.9691,273.8831a57.65215,57.65215,0,0,0,21.38806,13.102,59.08409,59.08409,0,0,0,25.00639,2.42956,60.48,60.48,0,0,0,12.337-2.76733,53.69124,53.69124,0,0,0,11.50784-5.29264l-.57514-.12519,16.68067,27.51044.14025-.64636a143.30545,143.30545,0,0,1-20.60746,10.877,121.42727,121.42727,0,0,1-22.151,7.20974,74.42006,74.42006,0,0,1-23.12988,1.52617A76.7,76.7,0,0,1,67.06,322.01553a91.57163,91.57163,0,0,1-20.1707-11.5912,106.95379,106.95379,0,0,1-16.68742-16.26757,117.10043,117.10043,0,0,1-12.80517-19.51029l-2.57278-5.25433c-.84857-1.75608-1.50564-3.59774-2.26871-5.39288l-1.10676-2.7104c-.3523-.90964-.63034-1.84653-.94551-2.76979Z" fill="#1d262d"/><path d="M159.4219,291.304a22.14056,22.14056,0,0,1,4.223-1.91123,14.84749,14.84749,0,0,1,4.44161-.76269,11.66892,11.66892,0,0,1,4.40049.72781,19.87458,19.87458,0,0,1,4.11716,2.0949,18.34929,18.34929,0,0,0-1.73385-1.629,10.73315,10.73315,0,0,0-2.063-1.24613,11.1,11.1,0,0,0-2.303-.80832,12.40025,12.40025,0,0,0-2.43939-.22138A12.60906,12.60906,0,0,0,159.4219,291.304Z" fill="#855a4c"/><path d="M160.28441,283.73431a30.41959,30.41959,0,0,1,4.99649-1.14232,24.22822,24.22822,0,0,1,5.03538-.1847,19.21623,19.21623,0,0,1,4.93107.91826,26.91747,26.91747,0,0,1,4.69779,2.02624,15.007,15.007,0,0,0-4.40727-2.81743,16.96187,16.96187,0,0,0-2.51848-.83636,20.5826,20.5826,0,0,0-2.6321-.36829A17.31407,17.31407,0,0,0,160.28441,283.73431Z" fill="#855a4c"/><path d="M157.4964,277.88087a24.78,24.78,0,0,1,4.44794-1.23127,21.2208,21.2208,0,0,1,4.5181-.357,20.43678,20.43678,0,0,1,4.48758.56834,32.81027,32.81027,0,0,1,4.40811,1.39591,21.18,21.18,0,0,0-1.98753-1.27146,14.27136,14.27136,0,0,0-2.18568-.93681,15.01377,15.01377,0,0,0-4.70077-.83613,15.454,15.454,0,0,0-4.73331.61969A13.137,13.137,0,0,0,157.4964,277.88087Z" fill="#855a4c"/></g></g></svg>