<?xml version="1.0" encoding="utf-8"?>
<!-- Generator: Adobe Illustrator 23.0.6, SVG Export Plug-In . SVG Version: 6.00 Build 0)  -->
<svg version="1.1" id="Laag_1" xmlns="http://www.w3.org/2000/svg" xmlns:xlink="http://www.w3.org/1999/xlink" x="0px" y="0px"
	 viewBox="0 0 456.2 348" style="enable-background:new 0 0 456.2 348;" xml:space="preserve">
<style type="text/css">
	.st0{fill:#CDF2F7;}
	.st1{fill:#99DDDD;}
	.st2{fill:#4C857A;}
	.st3{fill:#5EA49B;}
	.st4{fill:#6B4E2F;}
	.st5{fill:#CFD1D2;}
	.st6{fill:#434244;}
	.st7{fill:#59595B;}
	.st8{fill:#E86138;}
	.st9{fill:#D35B30;}
	.st10{fill:#BF4925;}
	.st11{fill:#7F5E40;}
	.st12{fill:#B8996E;}
	.st13{fill:#FFC1AC;stroke:#855A4C;stroke-miterlimit:10;}
	.st14{fill:#1F2F6D;}
	.st15{fill:#756666;stroke:#1D262D;stroke-miterlimit:10;}
	.st16{fill:#855A4C;}
	.st17{fill:#1D262D;}
	.st18{fill:#756666;}
	.st19{fill:#EE704F;}
	.st20{fill:#564242;}
	.st21{fill:#FFC1AC;}
	.st22{fill:#AD6800;}
	.st23{fill:#867575;}
</style>
<g transform="translate(-310.788 -603)">
	<path class="st0" d="M329.6,887.7c4.1,30.3,30.1,52.1,30.1,52.1h377.5c0,0,13.5-20.9,18.3-52.1c0.3-1.9,0.6-3.9,0.8-5.9
		c35-108.5-22.9-137.5-65.5-138.3c-25.9-0.5-65-11.8-98-33.8c-7.8-5.5-15.3-11.5-22.5-17.8c-11.7-10.8-21.2-23.6-28.1-37.9
		c-27.7-58.8-110.9-63.2-145.7-31.4s-18.8,107.3-18.8,107.3c7,38.7-12.1,82.1-35.8,112.6C330.3,858.5,327.7,874,329.6,887.7z"/>
	<path class="st1" d="M374.3,887.7c3.7,30.3,27,52.2,27,52.2h338.8c0,0,12.1-20.9,16.4-52.2L374.3,887.7z"/>
	<path class="st2" d="M719.2,907.8c0,0-13.1-17.6-5.2-36.9c4.7-11.3,3.8-24.2-2.4-34.8c0,0,16.2,12.6,16.6,30.4s-13.2,20.5-5.6,42.1
		L719.2,907.8z"/>
	<path class="st3" d="M713.6,909c0,0,10.1-22.6-3.2-36.8c-13.3-14.2-7.2-28.5-7.2-28.5s-14.8,20.7-0.5,36.4
		c14.3,15.8,7.5,32.2,7.5,32.2L713.6,909z"/>
	<path class="st3" d="M728.1,909.3c0,0-2.4-19.4,7.9-32.7c10.3-13.3,2.4-27.6-1.4-31.1c0,0,3.6,11.3-5.5,18.4
		c-9.1,7.1-10.4,26.4-3.2,44.9L728.1,909.3z"/>
	<path class="st4" d="M732.7,905.7l-0.5,4.7l-1.9,17.3h-22.2l-1.9-17.3l-0.5-4.7H732.7z"/>
	<path class="st5" d="M732.7,905.7l-0.5,4.7h-26l-0.5-4.7H732.7z"/>
	<path class="st4" d="M734.9,908h-31.8l-1-10.2h33.7L734.9,908z"/>
	<path class="st6" d="M612.8,868.3l9.9,55.8h3.6l-9.8-80.9h-8.2l3.7,20.6h-38.2l3.4-17.5l-6.8-3.8l-12.4,84.6h3.6l4.7-24.3l26.6,2.5
		l0.3-3.7l-26.2-2.5l6-31H612.8z"/>
	<path class="st7" d="M650.3,929.1h3.6l-12.4-84.6l-6.8,3.8l3.9,20.1H600l3.3-18.3h-8.2l-9.8,80.9h3.6l10.3-57.9h40.3L650.3,929.1z"
		/>
	<path class="st8" d="M638,770.1l12.4-8.1c0,0,11-3.5,14.9,8.5c3.5,11.1,3.4,77.9-13.9,84.7s-22.5-29.3-22.5-29.3L638,770.1z"/>
	<path class="st9" d="M603.4,843.6c0,0,1.1-48.2,27.7-71.2c32.6-24.7,33.2-0.5,24.8,15.5c-9.1,17.9-9.8,42.7-2.4,63.9L603.4,843.6z"
		/>
	<path class="st8" d="M579.5,839.2l-18.9,8.8c0,0-2.5,7.6,9.4,11.2c11.8,3.6,70.9-0.5,78.4-3c7.5-2.5,8.3-8.8,8.3-8.8
		s-6.7-5.7-20.5-6.3C622.3,840.6,579.5,839.2,579.5,839.2z"/>
	<path class="st10" d="M642,839.6c-13-5.8-31.9-7.2-53.2-4.4c-25.7,2.9-38.6,15.6-24.6,20c14.1,4.4,35.6,0.6,46.4-4.1
		c10.8-4.6,33.3-10.4,40.6-6.4C651.2,844.6,648.5,841.9,642,839.6z"/>
	<path class="st11" d="M704.4,932.5l-36.3-115.3h-9.5l41,115.3H704.4z"/>
	<path class="st11" d="M453,932.5l36.3-115.3h9.5l-41,115.3H453z"/>
	<path class="st12" d="M700.3,813.1H468.3c-2.3,0-4.2,2-4.2,4.3c0,2.3,1.9,4.1,4.2,4.2h231.9c2.3,0,4.3-1.8,4.3-4.2
		s-1.8-4.3-4.2-4.3C700.3,813.1,700.3,813.1,700.3,813.1z"/>
	<path class="st13" d="M511,780.2c3.7-0.2,4.3,6.4,4.2,11.5l7.8-6.6l15.4,20l-9.9,16.7l-22.4-22.3
		C506.1,799.4,503.9,780.5,511,780.2z"/>
	<path class="st14" d="M533.2,816.5L533.2,816.5c3.5-1.6,5-5.7,3.4-9.2c0-0.1-0.1-0.2-0.1-0.3L519,771.7l-8.6,3l13.5,38
		c1.4,3.6,5.5,5.3,9,3.8C533,816.6,533.1,816.5,533.2,816.5z"/>
	<path class="st0" d="M479,760.4c5.9,13,21.2,18.7,34.2,12.7c13-5.9,18.7-21.2,12.7-34.2c-5.8-12.7-20.8-18.5-33.7-13
		c-0.2,0.1-0.4,0.2-0.6,0.3C478.8,732.2,473.1,747.5,479,760.4C479,760.4,479,760.4,479,760.4L479,760.4z"/>
	<path class="st14" d="M489.9,722.3c15.1-6.9,33-0.3,40,14.8s0.3,33-14.8,40c-15.1,6.9-33,0.3-40-14.8c0,0,0,0,0,0
		C468.1,747.1,474.8,729.3,489.9,722.3z M479,760.4c5.9,13,21.2,18.7,34.2,12.7c13-5.9,18.7-21.2,12.7-34.2
		c-5.8-12.7-20.8-18.5-33.7-13c-0.2,0.1-0.4,0.2-0.6,0.3C478.8,732.2,473.1,747.5,479,760.4C479,760.4,479,760.4,479,760.4
		L479,760.4z"/>
	<path class="st13" d="M516.6,800.5c0,0-3.6,0.2-4.9-1.6c-1.3-1.7,0.7-4.5,0.7-4.5s-3.7,1.1-3.6-1.8c0.1-3.2,13.3-12.9,18.9-11.9
		c7,1.3,11.7,17.8,11.4,23.1c-0.2,2.9-13,4.9-15.2,5.4c-2.4,0.6-7.3-0.1-3.7-3C520.1,806.3,512.1,806.8,516.6,800.5z"/>
	<path class="st15" d="M401.9,781.2c0,0,45.5,60.7,49.4,63.6c3.9,2.8,51.8-47.1,51.8-47.1l25.8,23.7c0,0-40.3,57.1-69.2,75.3
		c-22.3,14-60.4-40.1-70.3-52.9C379.6,830.8,368.2,758.3,401.9,781.2z"/>
	<path class="st16" d="M512.4,794.5c1.4-0.7,2.7-1.4,4.1-2.1c1.4-0.7,2.7-1.3,4.1-1.9c1.4-0.6,2.8-1.2,4.2-1.7
		c1.4-0.5,2.9-1,4.4-1.4c-1.6,0-3.1,0.2-4.6,0.6c-1.5,0.4-3,0.9-4.4,1.5C517.3,790.7,514.7,792.4,512.4,794.5z"/>
	<path class="st16" d="M532.7,794.7c-2.9-0.1-5.8,0.4-8.5,1.4c-2.7,0.9-5.3,2.2-7.7,3.9c2.7-0.9,5.4-1.9,8-2.8
		C527.3,796.2,530,795.4,532.7,794.7z"/>
	<path class="st16" d="M531.3,802.3c-2,0.1-4,0.5-5.9,1.2c-1.9,0.7-3.7,1.6-5.3,2.7c1.9-0.4,3.8-1,5.7-1.7
		C527.7,803.9,529.5,803.1,531.3,802.3z"/>
	<path class="st17" d="M419,766.7c-0.7-0.2-45.5-18.2-87.1-5.4l9.7,30.1l54.7,10L419,766.7z"/>
	<path class="st18" d="M372.5,822.3l-8-52.3l54.5-4c0,0-7,25.2-8.4,27.4c0,0,8.9,11.3,11.8,30.7c0.5,3.3,23,118,23,118l-48.3,3.4
		C397,945.5,371.8,841.1,372.5,822.3z"/>
	<path class="st17" d="M430.2,864.7l7.4,38.7l7.5,38.7l0.3-0.4L397,945l0.4,0.3c-4.8-20.4-9.5-40.8-13.9-61.3
		c-2.2-10.2-4.4-20.5-6.3-30.8c-0.5-2.6-1-5.1-1.4-7.7c-0.4-2.6-0.9-5.1-1.3-7.7c-0.4-2.6-0.8-5.2-1.1-7.8c-0.1-1.3-0.3-2.6-0.4-3.9
		l-0.2-3.9l0-0.1l0,0l-8.1-52.2l-0.3,0.4l27.2-2.1l27.2-2.1l-0.2-0.2c-1.3,4.6-2.6,9.2-3.9,13.8l-2,6.9c-0.6,2.3-1.4,4.6-2.4,6.8
		c0.9-2.2,1.8-4.4,2.4-6.7l2.1-6.9c1.4-4.6,2.7-9.2,4-13.8l0.1-0.2l-0.2,0l-27.3,1.9l-27.3,1.9l-0.4,0l0.1,0.4l7.9,52.3l0-0.1l0.1,4
		c0.1,1.3,0.3,2.6,0.4,3.9c0.2,2.6,0.7,5.2,1.1,7.8c0.4,2.6,0.8,5.2,1.3,7.8c0.4,2.6,0.9,5.2,1.4,7.7c1.9,10.3,4,20.6,6.2,30.8
		c4.5,20.5,9.1,40.9,14.1,61.3l0.1,0.3l0.3,0l48.3-3.5l0.4,0l-0.1-0.4l-7.7-38.7L430.2,864.7z"/>
	<path class="st19" d="M394.9,790.1c0,0-6.3-2.2-22.8-4.2c-22-2.7-41,5.8-40.5,11c1.1,11.5,63.5,34.8,62.6,15.6L394.9,790.1z"/>
	<path class="st13" d="M350.3,738.4L340,785.3l41.1,19l8.5-40.1C389.5,764.1,366.3,731.4,350.3,738.4z"/>
	<path class="st20" d="M332.3,707.7c0,0-19.3,6.8-14.5,12.4s25.9-12.9,25.9-12.9L332.3,707.7z"/>
	<path class="st21" d="M342.1,714.9c-1.6,25.9,13.1,53,25.2,65.4c8,8.3,40.7,9,44.4-0.9c6.3-17,2.2-71.9,0.6-84.3
		c-1.6-12.4-38-15.1-53.9-11.7S343,700.8,342.1,714.9z"/>
	<path class="st21" d="M378.1,785.1c12.7,2.9,30.9,1.3,33.6-5.9c6.3-17,2.2-71.9,0.6-84.3"/>
	<path class="st16" d="M378.1,785.1c4.9,1.2,9.9,1.7,15,1.6c2.5,0,5.1-0.3,7.5-0.7c2.5-0.4,5-1.2,7.3-2.3c1.2-0.6,2.2-1.4,3.1-2.4
		c0.4-0.5,0.8-1.1,1.1-1.7c0.2-0.6,0.4-1.2,0.6-1.8l0.5-1.8c0.1-0.6,0.3-1.2,0.4-1.9c0.2-1.2,0.5-2.5,0.7-3.7l0.5-3.8l0.3-3.8
		c0.3-2.5,0.3-5,0.4-7.5c0.3-10.1,0.1-20.2-0.5-30.2c-0.6-10-1.3-20.1-2.7-30.1c0.5,5,0.9,10,1.1,15c0.3,5,0.6,10,0.8,15.1
		c0.4,10,0.6,20.1,0.2,30.1c-0.1,2.5-0.2,5-0.4,7.5l-0.3,3.7l-0.5,3.7c-0.1,1.2-0.4,2.5-0.6,3.7c-0.1,0.6-0.2,1.2-0.4,1.8l-0.5,1.8
		c-0.2,0.6-0.3,1.2-0.5,1.8c-0.2,0.5-0.5,1-0.9,1.5c-0.8,0.9-1.7,1.7-2.8,2.2c-2.2,1.1-4.6,1.9-7,2.4c-2.5,0.5-4.9,0.8-7.4,0.9
		C388,786.4,383,786,378.1,785.1z"/>
	<path class="st22" d="M356.4,738.2l-7.8,1l-9.9-0.2c0,0-10.4-43.6-0.1-52.6c10.4-9,20-1.4,18.7,10.9S352.3,724.1,356.4,738.2z"/>
	<path class="st22" d="M385.6,756.8c2-3.9,8.4-3.3,10.1-3.1c1.7-0.5,8-1.9,10.5,1.6c3.9,5.5,5.9,4.2,5.9,4.2s-1.6,10.6-15.6,5.2
		c-13.1,7.2-16.2-3-16.2-3S382.5,762.8,385.6,756.8z"/>
	<path class="st21" d="M389.9,753.3c0,0,10.3,2.4,13.8,0.1c3.5-2.3-4.5-15.3-9.4-23.7"/>
	<path class="st16" d="M389.9,753.3c3.3,1,6.7,1.5,10.1,1.5c0.9,0,1.8-0.2,2.6-0.4c0.5-0.1,0.9-0.3,1.3-0.5c0.5-0.3,0.8-0.7,1-1.2
		c0.3-0.9,0.3-1.9,0.1-2.8c-0.2-0.9-0.4-1.7-0.7-2.5c-1.2-3.2-2.7-6.2-4.5-9.1c-1.7-2.9-3.5-5.8-5.4-8.6l4.8,8.9
		c1.6,2.9,3,6,4.2,9.1c0.3,0.8,0.5,1.6,0.7,2.4c0.2,0.7,0.2,1.5,0,2.2c-0.1,0.3-0.3,0.5-0.6,0.7c-0.3,0.2-0.7,0.3-1,0.5
		c-0.8,0.2-1.6,0.4-2.4,0.4c-1.7,0.1-3.3,0.1-5,0C393.2,753.7,391.5,753.5,389.9,753.3z"/>
	<path class="st17" d="M379.4,729.9c0.1,3.2-1.1,5.8-2.9,5.9c-1.7,0.1-3.2-2.4-3.4-5.6c-0.1-3.2,1.1-5.8,2.9-5.9
		C377.8,724.2,379.3,726.7,379.4,729.9z"/>
	<path class="st17" d="M403.9,728.8c0.1,3.2-1.1,5.8-2.9,5.9c-1.7,0.1-3.2-2.4-3.4-5.6c-0.1-3.2,1.1-5.8,2.9-5.9
		C402.2,723.1,403.7,725.6,403.9,728.8z"/>
	<path class="st22" d="M367.7,722c0,0,7.6-14.2,14.9,0.4C377.8,720.4,372.5,720.3,367.7,722z"/>
	<path class="st22" d="M393.1,722.6c0,0,7.6-14.2,14.9,0.4C403.2,721,397.9,720.8,393.1,722.6z"/>
	<path class="st21" d="M354.2,746.7c0,0-13,7.4-19.4-2.9s3.3-26.2,16.9-11.5"/>
	<path class="st16" d="M354.2,746.7c-2.1,1-4.4,1.7-6.7,2.1c-2.3,0.4-4.6,0.2-6.8-0.5c-2.1-0.8-3.9-2.3-5.2-4.3
		c-2.6-3.8-2.9-8.8-0.9-12.9c1-2,2.8-3.5,5-4.1c2.2-0.4,4.6,0,6.5,1.1c2.1,1.1,3.9,2.6,5.6,4.2c-1.5-1.9-3.3-3.5-5.3-4.7
		c-2.1-1.4-4.6-1.9-7-1.5c-2.5,0.6-4.5,2.2-5.7,4.5c-1.2,2.2-1.7,4.7-1.4,7.1c0.2,2.5,1,4.8,2.4,6.8c1.4,2.1,3.4,3.6,5.7,4.4
		c2.3,0.7,4.8,0.8,7.1,0.3C349.9,748.8,352.2,747.9,354.2,746.7z"/>
	<path class="st16" d="M335.9,732.7c1-1.3,2.2-2.4,3.6-3.1c1.4-0.7,3-0.9,4.5-0.3c1.5,0.6,2.8,1.5,3.8,2.7c0.5,0.6,1,1.2,1.5,1.9
		l1.4,2l0.6-0.5c-0.8-0.7-1.7-1.4-2.7-1.9c-1-0.5-2-1-3.1-1.2c-1.1-0.3-2.2-0.3-3.3,0c-1,0.3-2,0.9-2.7,1.7c0.8-0.7,1.8-1.1,2.8-1.3
		c1-0.1,2.1-0.1,3.1,0.2c1,0.3,1.9,0.7,2.8,1.3c0.9,0.5,1.7,1.1,2.5,1.8l0,0c0.2,0.1,0.4,0.1,0.6,0c0.1-0.1,0.1-0.3,0-0.5l-1.4-2.1
		c-0.5-0.7-1.1-1.3-1.6-1.9c-1.1-1.3-2.6-2.2-4.2-2.8c-1.7-0.5-3.5-0.3-4.9,0.6c-0.7,0.4-1.4,1-1.9,1.6
		C336.8,731.3,336.3,731.9,335.9,732.7L335.9,732.7z"/>
	<path class="st20" d="M418.6,704.3l-86.3,3.6c0,0,1.1-53.8,43.2-55C413.3,651.9,418.6,704.3,418.6,704.3z"/>
	<path class="st20" d="M370.2,652.3c0.1,2,1.9,3.5,3.8,3.3c2-0.1,3.5-1.9,3.3-3.8c-0.1-2-1.9-3.5-3.8-3.3
		C371.6,648.6,370.1,650.4,370.2,652.3L370.2,652.3z"/>
	<path class="st20" d="M418.5,704.1c0,0,30.2,9.7,18.7,12.2c-19,4.2-46.7,6.6-66.5-10.2L418.5,704.1z"/>
	<path class="st18" d="M378.5,653c35.1,2.2,40.1,51.3,40.1,51.3l-47.8,2l0,0C370.7,706.3,363.7,681.3,378.5,653z"/>
	<path class="st23" d="M332.1,760.6l52.6,9.9l-5.4,24.3l14.8,16.7l25,132.5l-95.1,6.6c0,0-6.2-82.4-6.7-113.8
		c-0.4-24.9-2.4-45.7,14.4-52.6L332.1,760.6z"/>
	<path class="st17" d="M323.8,950.6l23.8-1.5c7.9-0.5,15.9-1,23.8-1.5l47.5-3.2l0.5,0l-0.1-0.5l-6.2-33.2c-2-11.1-4.2-22.1-6.3-33.1
		l-12.7-66.2l0-0.1l-0.1-0.1c-5-5.6-9.9-11.1-14.9-16.6l0,0.2l5.2-24.3l-5.6,24.2l0,0.1l0.1,0.1c4.9,5.6,9.8,11.2,14.8,16.8
		l-0.1-0.1l12.3,66.3c2.1,11,4.1,22.1,6.2,33.1l6.3,33.1l0.4-0.5l-47.5,3.4c-7.9,0.6-15.8,1.2-23.8,1.8L323.8,950.6z"/>
	<path class="st17" d="M469.7,865.6l0.5,7.4c0,0-5.2-4.7-6.8-14.8c-1.5-10.1-11.8-13-17-12.6l0.2,3.3c0,0,10.4-0.1,13.5,12.7
		c3.1,12.8,3.2,23.7,11,25.4c0,0,1,5.1,11.1,5c5.8,0,10.6-2.7,10.1-9.3l-1.3-18.7L469.7,865.6z"/>
	<path class="st13" d="M453.1,889.7c-6.2,3.8-34.5,11.9-58.1-0.9c-20-10.8-33.5-39.7-39.9-71.9c-4.4-22.3-18.2-21.8-24.6-20.3
		c-6.5,1.4-15.2,4.4-4.8,48.6c10.5,44.2,36.4,73.3,59.9,79c23.5,5.7,52.5,10.1,87.4-17c7.8-6.1,8.9-10.3,13.7-8.4
		c4.8,1.9,8.3-1.2,6.8-4.2c0,0,8-0.7,3.3-6.1c0,0,2.4-5.7-4.6-7.3c0,0,3-4-5.5-6.7c-8.5-2.7-17.7,2.9-19.5,3c-1.6-1.3-3-2.9-4.1-4.7
		c0,0-3.8,1.2-2.9,5.8C461.1,882.2,459.2,885.9,453.1,889.7z"/>
	<path class="st23" d="M472.7,911.5L456,884c-14.2,8.5-31.3,10.7-47.1,6.1c-26.6-7.8-46.5-38.7-51.2-69.1
		c-4.1-26.4-15.5-28.6-26.3-27c-13.9,2.1-18.3,18.2-5.7,61.9c12.6,43.7,46,72.4,82.4,75.4C439.7,933.9,472.7,911.5,472.7,911.5z"/>
	<path class="st17" d="M325.7,856l1.8,5.6c0.3,0.9,0.6,1.9,0.9,2.8l1.1,2.7c0.7,1.8,1.4,3.7,2.2,5.4l2.5,5.3
		c0.2,0.4,0.4,0.9,0.6,1.3l0.7,1.3l1.4,2.6l1.4,2.6c0.5,0.8,1.1,1.6,1.6,2.5c1.1,1.6,2.1,3.3,3.3,4.9l3.6,4.7
		c5,6.1,10.6,11.6,16.7,16.4c6.2,4.8,13,8.7,20.3,11.8c7.2,3.1,14.9,5.1,22.7,5.8c7.8,0.7,15.7,0.3,23.4-1.4
		c15.4-3.3,29.9-9.8,43.1-18.3l0.4-0.2l-0.2-0.4l-16.8-27.4l-0.2-0.4l-0.4,0.2c-3.5,2.2-7.3,4-11.3,5.3c-4,1.4-8,2.3-12.2,2.8
		c-8.3,1-16.8,0.2-24.7-2.3c-7.9-2.7-15.2-7.1-21.3-12.8c-6.2-5.7-11.4-12.3-15.7-19.6c4.2,7.3,9.4,14,15.5,19.8
		c6.1,5.9,13.4,10.4,21.4,13.1c8.1,2.6,16.6,3.4,25,2.4c4.2-0.5,8.3-1.4,12.3-2.8c4-1.3,7.9-3.1,11.5-5.3l-0.6-0.1l16.7,27.5
		l0.1-0.6c-6.6,4.2-13.5,7.8-20.6,10.9c-7.1,3.1-14.6,5.5-22.2,7.2c-7.6,1.7-15.4,2.2-23.1,1.5c-7.7-0.7-15.3-2.7-22.5-5.7
		c-7.2-3-14-6.9-20.2-11.6c-6.1-4.8-11.7-10.3-16.7-16.3c-4.9-6.1-9.2-12.6-12.8-19.5l-2.6-5.3c-0.8-1.8-1.5-3.6-2.3-5.4l-1.1-2.7
		c-0.4-0.9-0.6-1.8-0.9-2.8L325.7,856z"/>
	<path class="st16" d="M476.4,894.3c1.3-0.8,2.8-1.4,4.2-1.9c1.4-0.5,2.9-0.7,4.4-0.8c1.5,0,3,0.2,4.4,0.7c1.4,0.5,2.8,1.2,4.1,2.1
		c-0.5-0.6-1.1-1.1-1.7-1.6c-0.6-0.5-1.3-0.9-2.1-1.2c-0.7-0.4-1.5-0.6-2.3-0.8c-0.8-0.2-1.6-0.2-2.4-0.2
		C481.8,890.6,478.7,892,476.4,894.3z"/>
	<path class="st16" d="M477.3,886.7c1.6-0.5,3.3-0.9,5-1.1c1.7-0.2,3.4-0.3,5-0.2c1.7,0.1,3.3,0.4,4.9,0.9c1.6,0.5,3.2,1.2,4.7,2
		c-1.3-1.2-2.8-2.1-4.4-2.8c-0.8-0.3-1.7-0.6-2.5-0.8c-0.9-0.2-1.7-0.3-2.6-0.4C483.9,884.1,480.3,884.9,477.3,886.7z"/>
	<path class="st16" d="M474.5,880.9c1.4-0.5,2.9-1,4.4-1.2c1.5-0.3,3-0.4,4.5-0.4c1.5,0,3,0.2,4.5,0.6c1.5,0.4,3,0.8,4.4,1.4
		c-0.6-0.5-1.3-0.9-2-1.3c-0.7-0.4-1.4-0.7-2.2-0.9c-1.5-0.5-3.1-0.8-4.7-0.8c-1.6,0-3.2,0.2-4.7,0.6
		C477.2,879.3,475.8,879.9,474.5,880.9z"/>
</g>
</svg>
