<svg xmlns="http://www.w3.org/2000/svg" width="456.212" height="347.998" viewBox="0 0 456.212 347.998"><g transform="translate(-310.788 -603)"><path d="M.546,284.741c4.133,30.3,30.073,52.1,30.073,52.1H408.108s13.483-20.889,18.319-52.1c.293-1.919.557-3.865.791-5.863C462.244,170.334,404.283,141.4,361.753,140.6c-25.866-.487-65.025-11.8-97.97-33.837a255.85,255.85,0,0,1-22.51-17.839,127.281,127.281,0,0,1-28.109-37.9C185.481-7.751,102.312-12.194,67.491,19.606s-18.8,107.321-18.8,107.321c7.005,38.741-12.091,82.121-35.817,112.554C1.293,255.492-1.315,270.991.546,284.741Z" transform="translate(329.008 603)" fill="#cdf2f7"/><path d="M7.892,216.6c3.71,30.338,26.993,52.161,26.993,52.161H373.714s12.1-20.914,16.443-52.161Z" transform="translate(366.456 671.073)" fill="#9dd"/><path d="M37.22,249.111s-13.136-17.626-5.236-36.941a39.412,39.412,0,0,0-2.373-34.841S45.8,189.961,46.229,207.769s-13.2,20.5-5.6,42.084Z" transform="translate(681.993 658.654)" fill="#4c857a"/><path d="M54.907,248.513s10.085-22.556-3.182-36.794-7.227-28.51-7.227-28.51-14.779,20.658-.489,36.419,7.5,32.209,7.5,32.209Z" transform="translate(658.695 660.514)" fill="#5ea49b"/><path d="M26.445,248.414s-2.383-19.385,7.944-32.731,2.383-27.647-1.43-31.143c0,0,3.589,11.281-5.514,18.431S17.07,229.347,24.22,247.858Z" transform="translate(701.69 660.934)" fill="#5ea49b"/><path d="M53.113,230.294l-.5,4.671-1.878,17.322H28.488l-1.9-17.322-.515-4.671Z" transform="translate(679.564 675.401)" fill="#6b4e2f"/><path d="M53.113,230.294l-.5,4.671H26.592l-.515-4.671Z" transform="translate(679.564 675.401)" fill="#cfd1d2"/><path d="M56.393,234.481H24.615l-.954-10.169H57.346Z" transform="translate(678.511 673.51)" fill="#6b4e2f"/><path d="M161.865,208.06l9.908,55.837h3.587l-9.783-80.862h-8.151l3.659,20.623H122.837l3.392-17.526-6.847-3.75L106.99,266.995h3.587l4.7-24.286,26.6,2.514.347-3.677-26.24-2.48,6-31.006Z" transform="translate(450.917 660.252)" fill="#434244"/><path d="M151.021,268.419h3.587l-12.392-84.612-6.847,3.75,3.881,20.052H100.674l3.255-18.341H95.776l-9.783,80.863H89.58l10.27-57.876h40.3Z" transform="translate(499.286 660.703)" fill="#59595b"/><path d="M85.059,129.243l12.36-8.107s10.968-3.513,14.938,8.51c3.465,11.137,3.443,77.878-13.885,84.677s-22.541-29.35-22.541-29.35Z" transform="translate(552.959 640.879)" fill="#e86138"/><path d="M81.006,202.663s1.062-48.185,27.709-71.213c32.578-24.725,33.223-.492,24.784,15.5-9.144,17.94-9.808,42.7-2.433,63.854Z" transform="translate(522.384 640.949)" fill="#d35b30"/><path d="M103.072,179.728l-18.938,8.8s-2.475,7.64,9.373,11.218,70.884-.529,78.4-3,8.3-8.809,8.3-8.809-6.733-5.654-20.526-6.271S103.072,179.728,103.072,179.728Z" transform="translate(476.419 659.517)" fill="#e86138"/><path d="M171.618,181.366c-12.987-5.819-31.854-7.24-53.2-4.444-25.724,2.909-38.64,15.557-24.583,19.971s35.565.576,46.357-4.072,33.292-10.378,40.643-6.4C180.832,186.422,178.112,183.739,171.618,181.366Z" transform="translate(470.354 658.198)" fill="#bf4925"/><path d="M93.395,278.342,57.1,163.042H47.573l41,115.3Z" transform="translate(611.029 654.137)" fill="#7f5e40"/><path d="M203.875,278.342l36.29-115.3H249.7l-41,115.3Z" transform="translate(249.133 654.137)" fill="#7f5e40"/><path d="M283.747,159.832H51.8a4.226,4.226,0,0,0,0,8.451H283.747a4.226,4.226,0,1,0,0-8.451Z" transform="translate(416.503 653.271)" fill="#b8996e"/><path d="M25.622,42.652c-3.709-.1-3.864-6.67-3.419-11.795l-8.239,6.079L0,15.949,11.038,0,31.813,23.766S32.677,42.839,25.622,42.652Z" transform="translate(539.518 820.938) rotate(176)" fill="#ffc1ac" stroke="#855a4c" stroke-miterlimit="10" stroke-width="1"/><path d="M4.494.445h0A6.938,6.938,0,0,0,.56,9.669L15.506,46.06l8.84-2.427L13.534,4.786A6.939,6.939,0,0,0,4.494.445Z" transform="translate(537.677 816.601) rotate(176)" fill="#1f2f6d"/><path d="M49.941,16.737a25.788,25.788,0,1,0-15.623,33.4c.2-.069.392-.142.588-.214A25.737,25.737,0,0,0,49.941,16.736Z" transform="translate(530.001 773.648) rotate(176)" fill="#cdf2f7"/><path d="M40.759,58.343A30.135,30.135,0,1,1,58.341,19.528,30.138,30.138,0,0,1,40.759,58.343Zm13.5-37.276a25.788,25.788,0,1,0-15.623,33.4c.2-.069.392-.142.588-.214A25.736,25.736,0,0,0,54.255,21.067Z" transform="translate(534.607 777.674) rotate(176)" fill="#1f2f6d"/><path d="M22.291,9.439s3.6.086,4.773,1.9-1.006,4.391-1.006,4.391,3.817-.846,3.478,2.039C29.167,20.927,15.33,29.709,9.815,28.327,2.877,26.588-.6,9.727.084,4.444.456,1.56,13.342.5,15.67.094c2.433-.424,7.3.58,3.514,3.283C19.184,3.377,27.272,3.491,22.291,9.439Z" transform="translate(539.506 808.36) rotate(176)" fill="#ffc1ac" stroke="#855a4c" stroke-miterlimit="10" stroke-width="1"/><path d="M123.93,120.886S82.772,57.114,79.065,54.024s-54.932,43.4-54.932,43.4L0,72.005S44.2,17.832,74.318,1.759c23.2-12.381,57.419,44.187,66.391,57.7S156.027,146.126,123.93,120.886Z" transform="translate(533.992 893.146) rotate(176)" fill="#756666" stroke="#1d262d" stroke-miterlimit="10" stroke-width="1"/><path d="M17.261,0c-1.411.633-2.823,1.218-4.226,1.808-1.411.572-2.822,1.127-4.252,1.624-1.421.525-2.871.959-4.328,1.379S1.512,5.558,0,5.905a19.865,19.865,0,0,0,4.639-.271,26.973,26.973,0,0,0,4.5-1.184A27.264,27.264,0,0,0,17.261,0Z" transform="translate(529.636 793.297) rotate(176)" fill="#855a4c"/><path d="M0,4.14a22.022,22.022,0,0,0,8.551-.815A31.34,31.34,0,0,0,16.465,0c-2.783.715-5.477,1.545-8.2,2.283A78.084,78.084,0,0,1,0,4.14Z" transform="translate(533.002 798.854) rotate(176)" fill="#855a4c"/><path d="M0,3.2a18.1,18.1,0,0,0,5.955-.829A22.4,22.4,0,0,0,11.468,0,41.8,41.8,0,0,0,5.652,1.337C3.756,1.9,1.9,2.486,0,3.2Z" transform="translate(531.573 805.496) rotate(176)" fill="#855a4c"/><path d="M0,32.923c.64.286,44.17,21.294,86.473,11.5L78.931,13.748,25.023,0Z" transform="translate(421.277 799.5) rotate(176)" fill="#1d262d"/><path d="M64.345,124.605,68.7,177.3l-54.647.188s8.79-24.694,10.312-26.734c0,0-8.057-11.856-9.658-31.48C14.437,115.92,0,0,0,0L48.45,0S66.306,105.87,64.345,124.605Z" transform="translate(445.343 942.074) rotate(176)" fill="#756666"/><path d="M10.081,78.672,5.436,39.515.689.37.368.734l48.45.095L48.409.483q5.1,31.008,9.549,62.121c1.458,10.372,2.93,20.743,4.144,31.143q.487,3.9.878,7.8c.269,2.6.568,5.2.756,7.811.212,2.606.459,5.212.533,7.819.039,1.3.157,2.611.132,3.907l-.117,3.883,0,.067v.014l4.456,52.684.331-.361-27.323.145-27.323.22.147.208q2.377-6.761,4.835-13.493l2.512-6.712a58.2,58.2,0,0,1,2.819-6.581,58.253,58.253,0,0,0-2.891,6.553L19.26,164.4q-2.541,6.7-4.983,13.443l-.075.208h.223l27.324.032,27.323-.043h.36l-.029-.36-4.259-52.7v.08l.136-3.971c.03-1.322-.083-2.629-.118-3.944-.065-2.632-.3-5.243-.506-7.859-.179-2.619-.468-5.224-.728-7.833s-.533-5.216-.85-7.818c-1.193-10.416-2.573-20.807-4.068-31.18Q54.492,31.34,49.226.346L49.168,0h-.35L.368.086H0L.046.45,5.013,39.567Z" transform="translate(445.739 942.458) rotate(176)" fill="#1d262d"/><path d="M0,28.891s6.131,2.586,22.477,5.75c21.713,4.2,41.262-2.9,41.148-8.131-.253-11.56-60.88-39.094-61.337-19.89Z" transform="translate(396.954 818.899) rotate(176)" fill="#ee704f"/><path d="M37.364,67.866l13.52-46.073L11.255,0,0,39.444S20.882,73.637,37.364,67.866Z" transform="translate(392.267 803.449) rotate(176)" fill="#ffc1ac" stroke="#855a4c" stroke-miterlimit="10" stroke-width="1"/><path d="M11.332,12.6S31.017,7.143,26.7,1.247,0,12.285,0,12.285Z" transform="translate(344.47 719.483) rotate(176)" fill="#564242"/><path d="M71.725,75.141C75.153,49.389,62.316,21.4,51.17,8.147c-7.419-8.821-40-11.8-44.344-2.223C-.671,22.448-.391,77.488.365,90.005s36.824,17.717,52.98,15.387S69.856,89.174,71.725,75.141Z" transform="translate(418.914 784.895) rotate(176)" fill="#ffc1ac"/><path d="M40.75,2.425C28.257-1.369,10-1.077,6.826,5.925-.671,22.448-.391,77.49.365,90.007" transform="translate(418.897 784.627) rotate(176)" fill="#ffc1ac"/><path d="M41.061,2.714A58.3,58.3,0,0,0,26.214.064a48.556,48.556,0,0,0-7.58.2,25.248,25.248,0,0,0-7.413,1.813A10.3,10.3,0,0,0,7.963,4.243,6.362,6.362,0,0,0,6.791,5.887c-.269.6-.463,1.194-.7,1.792L5.419,9.471c-.191.606-.337,1.222-.507,1.833-.309,1.228-.709,2.44-.92,3.686l-.747,3.718-.588,3.74c-.425,2.49-.647,5-.97,7.5C.692,39.983.225,50.05.057,60.115-.074,70.179-.02,80.255.676,90.3q-.2-7.543-.091-15.084c.041-5.027.125-10.054.3-15.077.34-10.043.8-20.091,1.873-30.072.305-2.488.509-4.994.915-7.466l.56-3.716L4.951,15.2c.2-1.239.587-2.425.883-3.636.164-.6.3-1.211.486-1.8l.643-1.742c.22-.573.415-1.178.656-1.726a5.77,5.77,0,0,1,1-1.422,9.46,9.46,0,0,1,2.952-2.034,24.531,24.531,0,0,1,7.15-1.89A48.986,48.986,0,0,1,26.2.591,61.078,61.078,0,0,1,41.061,2.714Z" transform="translate(419.229 784.894) rotate(176)" fill="#855a4c"/><path d="M4.047.474,11.911,0l9.844.933s7.383,44.178-3.573,52.478-20.013,0-17.865-12.16S7.2,14.8,4.047.474Z" transform="translate(360.51 738.354) rotate(176)" fill="#ad6800"/><path d="M26.237,10.814c-2.251,3.707-8.576,2.726-10.338,2.37-1.762.355-8.087,1.336-10.338-2.372C2.059,5.046,0,6.178,0,6.178S2.342-4.292,15.9,2.028C29.454-4.289,31.8,6.181,31.8,6.181S29.738,5.048,26.237,10.814Z" transform="translate(412.524 765.807) rotate(176)" fill="#ad6800"/><path d="M14.77,1.739S4.672-1.354,1.016.71s3.41,15.618,7.753,24.277" transform="translate(404.723 753.984) rotate(176)" fill="#ffc1ac"/><path d="M15.315,2.206A33.875,33.875,0,0,0,5.379.009a11.5,11.5,0,0,0-2.629.2A5.049,5.049,0,0,0,1.434.659,2.284,2.284,0,0,0,.34,1.8a5.449,5.449,0,0,0-.269,2.77A16.227,16.227,0,0,0,.606,7.122a56.209,56.209,0,0,0,3.885,9.419c1.5,3.031,3.131,5.989,4.823,8.913L5.194,16.212A78.953,78.953,0,0,1,1.63,6.838a17.266,17.266,0,0,1-.49-2.395A4.505,4.505,0,0,1,1.3,2.232a1.217,1.217,0,0,1,.616-.649,4.744,4.744,0,0,1,1.061-.389A10.563,10.563,0,0,1,5.373.93a29.724,29.724,0,0,1,4.971.381C12,1.548,13.661,1.856,15.315,2.206Z" transform="translate(405.299 754.411) rotate(176)" fill="#855a4c"/><path d="M0,5.684C.08,2.5,1.545-.041,3.276,0S6.347,2.656,6.27,5.837,4.728,11.562,3,11.52-.074,8.865,0,5.684Z" transform="translate(379.834 735.555) rotate(176)" fill="#1d262d"/><path d="M0,5.684C.08,2.5,1.546-.042,3.276,0S6.348,2.656,6.271,5.837,4.728,11.562,3,11.52-.073,8.865,0,5.684Z" transform="translate(404.254 734.442) rotate(176)" fill="#1d262d"/><path d="M14.855,1.41S6.294,15.009,0,0A20.486,20.486,0,0,0,14.855,1.41Z" transform="translate(382.574 722.402) rotate(176)" fill="#ad6800"/><path d="M14.855,1.41S6.294,15.009,0,0A20.486,20.486,0,0,0,14.855,1.41Z" transform="translate(407.978 722.948) rotate(176)" fill="#ad6800"/><path d="M0,1.921S13.459-4.526,19.136,6.2,13.981,32.147,1.465,16.457" transform="translate(354.372 748.639) rotate(176)" fill="#ffc1ac"/><path d="M0,2.208A23.618,23.618,0,0,1,6.822.611a13.9,13.9,0,0,1,6.761,1.019,10.768,10.768,0,0,1,4.857,4.6,12.984,12.984,0,0,1-.024,12.965,7.745,7.745,0,0,1-5.246,3.766,9.263,9.263,0,0,1-6.452-1.591,24.228,24.228,0,0,1-5.254-4.623,21.817,21.817,0,0,0,4.945,5.09,9.975,9.975,0,0,0,6.893,2,8.581,8.581,0,0,0,5.967-4.1,12.809,12.809,0,0,0,1.937-7,13.821,13.821,0,0,0-1.955-6.976A11.086,11.086,0,0,0,13.882.945,13.948,13.948,0,0,0,6.776.153,21.986,21.986,0,0,0,0,2.208Z" transform="translate(354.392 748.926) rotate(176)" fill="#855a4c"/><path d="M15.29,4.27a11.118,11.118,0,0,1-3.825,2.872,5.645,5.645,0,0,1-4.493.034,9.531,9.531,0,0,1-3.6-2.919C2.925,3.6,2.424,2.982,2,2.3L.779.232.116.7A16.386,16.386,0,0,0,2.664,2.778,11.3,11.3,0,0,0,5.63,4.192,7.044,7.044,0,0,0,8.9,4.437a6.211,6.211,0,0,0,2.854-1.494A6.582,6.582,0,0,1,8.853,4.091a7.33,7.33,0,0,1-3.039-.447A11.66,11.66,0,0,1,3.086,2.155,15.692,15.692,0,0,1,.715.141L.7.126A.407.407,0,0,0,.052.606L1.267,2.767c.414.717.966,1.355,1.45,2.029A10.3,10.3,0,0,0,6.693,7.877a6.147,6.147,0,0,0,4.975-.3,8.915,8.915,0,0,0,2.024-1.447,9.677,9.677,0,0,0,1.6-1.865Z" transform="translate(351.449 735.846) rotate(176)" fill="#855a4c"/><path d="M0,0,86.292,2.435S81.4,56.066,39.375,54.261C1.622,52.639,0,0,0,0Z" transform="translate(418.558 704.327) rotate(176)" fill="#564242"/><path d="M7.2,3.6A3.6,3.6,0,1,0,3.6,7.2,3.6,3.6,0,0,0,7.2,3.6Z" transform="translate(377.657 655.438) rotate(176)" fill="#564242"/><path d="M20.544,14.967s-29.5-11.745-17.8-13.48c19.2-2.848,47.006-3.339,65.666,14.83Z" transform="translate(440.084 717.599) rotate(176)" fill="#564242"/><path d="M36.414,53.985C1.549,49.357,0,0,0,0L47.862,1.351h0S53.12,26.758,36.414,53.985Z" transform="translate(418.56 704.327) rotate(176)" fill="#756666"/><path d="M74.028,188.983l-51.8-13.547,7.1-23.819L15.679,133.945,0,0,95.3.009s.435,82.66-1.3,114.019c-1.376,24.843-.8,45.759-18.04,51.5Z" transform="translate(419.089 943.974) rotate(176)" fill="#867575"/><path d="M95.781.436,71.955.253Q60.042.142,48.13.13L.478,0H0L.054.477l3.833,33.5C5.137,45.142,6.518,56.3,7.842,67.455l8.016,66.952.01.084.051.066q6.834,8.827,13.733,17.6l-.032-.17L22.7,175.863,29.984,152.1l.028-.091-.06-.079q-6.739-8.9-13.556-17.74l.061.149L8.793,67.344C7.5,56.18,6.271,45.009,4.908,33.854L.9.378.478.854,48.13.733Q60.043.723,71.956.615Z" transform="translate(419.403 944.317) rotate(176)" fill="#1d262d"/><path d="M21.534,27.372V19.919s4.894,5.024,5.723,15.239S38.1,48.906,43.344,48.907V45.559s-10.359-.641-12.569-13.616S29.261,8.049,21.532,5.84c0,0-.612-5.115-10.767-5.8C4.981-.348,0,1.972,0,8.6L0,27.37Z" transform="translate(493.073 891.434) rotate(176)" fill="#1d262d"/><path d="M45.094,36.2c6.415-3.331,35.2-9.444,57.869,4.936,19.209,12.187,30.6,41.983,34.752,74.528,2.872,22.51,16.6,22.992,23.14,22.01s15.491-3.331,8.133-48.123S137.737,13.933,114.716,6.6,63.067-7.135,26.382,17.472c-8.2,5.5-9.59,9.683-14.25,7.445s-8.313.594-7.125,3.722c0,0-8.022.173-3.759,5.853,0,0-2.817,5.543,4.081,7.621,0,0-3.265,3.768,5,7.034s17.862-1.676,19.626-1.676A18.652,18.652,0,0,1,33.7,52.439s3.826-.952,3.285-5.585C36.556,43.169,38.679,39.528,45.094,36.2Z" transform="translate(500.575 922.677) rotate(176)" fill="#ffc1ac" stroke="#855a4c" stroke-miterlimit="10" stroke-width="1"/><path d="M0,16.024,14.786,44.6a59.657,59.657,0,0,1,47.45-2.841c26.019,9.592,43.67,41.871,46.241,72.5,2.233,26.6,13.424,29.579,24.355,28.737,14.021-1.08,19.542-16.832,10-61.317S102,6.254,65.906.739C34.552-4.052,0,16.024,0,16.024Z" transform="translate(473.845 927.475) rotate(176)" fill="#867575"/><path d="M143.48,82.1,142.1,76.4c-.24-.946-.438-1.9-.713-2.841l-.879-2.795c-.612-1.854-1.116-3.748-1.817-5.571l-2.135-5.461c-.182-.453-.346-.915-.544-1.362l-.626-1.326-1.253-2.652-1.253-2.653c-.426-.88-.941-1.714-1.408-2.573-.973-1.7-1.876-3.437-2.906-5.1l-3.243-4.9A107.574,107.574,0,0,0,109.793,21.6,92.3,92.3,0,0,0,90.381,8.44,77.533,77.533,0,0,0,68.125,1.022a75.355,75.355,0,0,0-23.467-.2C29.089,3.015,14.168,8.538.4,16.03l-.4.219.217.416L15.069,45.2l.191.366.374-.2a53.031,53.031,0,0,1,11.632-4.45,59.754,59.754,0,0,1,12.343-1.932A58.443,58.443,0,0,1,64.132,43a58.815,58.815,0,0,1,20.4,14.249,86.4,86.4,0,0,1,14.288,20.6A86.563,86.563,0,0,0,84.772,57.02,57.652,57.652,0,0,0,64.35,42.458,59.084,59.084,0,0,0,39.574,38.29a60.479,60.479,0,0,0-12.5,1.9,53.691,53.691,0,0,0-11.849,4.477l.565.165L1.069,16.225l-.185.635A143.306,143.306,0,0,1,22.2,7.447,121.427,121.427,0,0,1,44.8,1.8a74.42,74.42,0,0,1,23.18.091A76.7,76.7,0,0,1,90.034,9.138a91.571,91.571,0,0,1,19.313,12.97A106.954,106.954,0,0,1,124.859,39.5a117.1,117.1,0,0,1,11.413,20.356l2.2,5.421c.724,1.811,1.251,3.694,1.887,5.538l.915,2.781c.288.932.5,1.886.75,2.829Z" transform="translate(474.516 927.851) rotate(176)" fill="#1d262d"/><path d="M17.13,1.347a22.141,22.141,0,0,1-4.346,1.612A14.848,14.848,0,0,1,8.3,3.41,11.669,11.669,0,0,1,3.961,2.377,19.875,19.875,0,0,1,0,0,18.347,18.347,0,0,0,1.616,1.746,10.733,10.733,0,0,0,3.587,3.133,11.1,11.1,0,0,0,5.828,4.1a12.4,12.4,0,0,0,2.418.391A12.609,12.609,0,0,0,17.13,1.347Z" transform="translate(493.608 894.453) rotate(176)" fill="#855a4c"/><path d="M19.5,2.985a30.419,30.419,0,0,1-5.064.791A24.228,24.228,0,0,1,9.4,3.609a19.216,19.216,0,0,1-4.855-1.26A26.917,26.917,0,0,1,0,0,15.007,15.007,0,0,0,4.2,3.118a16.961,16.961,0,0,0,2.454,1.01,20.581,20.581,0,0,0,2.6.551A17.314,17.314,0,0,0,19.5,2.985Z" transform="translate(496.949 888.352) rotate(176)" fill="#855a4c"/><path d="M17.792,1.621a24.78,24.78,0,0,1-4.523.918,21.221,21.221,0,0,1-4.532.041A20.437,20.437,0,0,1,4.3,1.7,32.81,32.81,0,0,1,0,0,21.179,21.179,0,0,0,1.894,1.407,14.272,14.272,0,0,0,4.009,2.494,15.014,15.014,0,0,0,8.64,3.656a15.454,15.454,0,0,0,4.765-.288,13.137,13.137,0,0,0,4.387-1.747Z" transform="translate(492.362 881.257) rotate(176)" fill="#855a4c"/></g></svg>