<svg xmlns="http://www.w3.org/2000/svg" viewBox="0 0 182.24889 165.91216"><title>Middel 2</title><g id="aca97b16-86a6-4c81-bd39-bf9daf562211" data-name="Laag 2"><g id="af61dd90-2ace-4ff9-a08b-cf2eab26c764" data-name="OBJECTS"><path d="M178.96417,133.64874c-2.6991,5.5681-7.26689,10.5512-13.2315,14.817-29.4831,21.1591-92.9793,25.2739-131.06939,0a70.77717,70.77717,0,0,1-16.4969-14.9303c-12.3443-15.4965-19.649-39.2039-17.9126-61.5898.7173-9.1922,1.7932-20.8192,10.2304-30.9176,17.0254-20.3475,48.43379-15.7419,50.01929-15.4776,21.9896,3.5672,22.3671,16.6856,54.17181,36.8445,35.37209,22.4424,55.51189,19.2715,64.19459,39.3169C182.85247,110.88514,183.83407,123.56924,178.96417,133.64874Z" fill="#feea00"/><path d="M65.64157,140.83494l7.37771-33.1124a27.7096,27.7096,0,0,1,15.08679-18.9698l21.77221-10.4173,22.33759,9.2909a29.49269,29.49269,0,0,1,17.5391,21.1804l6.7138,32.0282Z" fill="#3d71f2"/><path d="M96.08,130.247s5.8235-7.6343,8.6238-7.1473,7.9748,9.6184,7.9748,9.6184h23.0923l.64941-5.8441s14.77259,2.6786,20.04849,13.9609H98.677Z" fill="#ffb0b3"/><path d="M136.41987,127.58214a.70731.70731,0,0,1-.7041-.6359l-2.00549-19.7121a.70776.70776,0,1,1,1.40819-.1438l2.0055,19.7121a.70785.70785,0,0,1-.6322.776C136.46777,127.58024,136.44377,127.58214,136.41987,127.58214Z" fill="#002d53"/><path d="M99.52928,75.00754v15.3408s-1.09581,9.4967,4.99189,8.6444,12.5459-17.6672,12.5459-17.6672l-1.0049-14.9217Z" fill="#ffb0b3"/><polygon points="116.846 77.948 99.537 89.046 99.537 75.003 116.053 66.396 116.846 77.948" fill="#ff7a72"/><ellipse cx="102.1421" cy="58.50386" rx="22.76766" ry="15.91665" transform="translate(10.70749 132.63497) rotate(-68.83636)" fill="#ffb3ae"/><path d="M119.00237,55.69954a33.56826,33.56826,0,0,1-13.1014-15.432s-21.6719,16.9642-26.7855,6.5746,7.5486-18.5875,9.0097-11.5259c0,0,11.6736-18.9122,30.8772-6.3311S119.00237,55.69954,119.00237,55.69954Z" fill="#002d53"/><path d="M122.14337,60.79444c-1.2339,3.4392-3.8636,5.6426-5.8735,4.9215s-2.639-4.0937-1.4051-7.5329,3.8636-5.6426,5.87351-4.9215S123.37728,57.35524,122.14337,60.79444Z" fill="#ffb3ae"/><rect x="26.23408" y="112.74874" width="20.6999" height="28.0918" fill="#6190e5"/><path d="M18.37768,126.89034a4.43544,4.43544,0,0,0,7.8564,2.8146v5.9572a9.15077,9.15077,0,0,1-3.4158.6421,9.42085,9.42085,0,1,1,0-18.8417,9.14884,9.14884,0,0,1,3.4158.6422v5.9572a4.43549,4.43549,0,0,0-7.8564,2.8284Z" fill="#6190e5"/><path d="M32.037,91.75074c2.5459-3.8877,6.2507-7.0313,8.1186-11.2866,2.5682-5.8504,1.2167-12.7392,3.1771-18.8205,2.8442-8.8233,11.8356-14.0205,17.10669-21.6465a29.33782,29.33782,0,0,0,2.2564-28.8083c-1.9974-4.1513-5.13649-7.9069-9.3287-9.8169a17.19244,17.19244,0,0,0-15.70659,1.1929,21.9431,21.9431,0,0,0-9.4572,12.9061c-3.6293,12.97,3.3886,26.9532.6032,40.1302-1.6562,7.8351-6.6495,14.6501-8.3339,22.4792a28.308,28.308,0,0,0,3.4317,20.0718c1.0302,1.7506,3.8997,7.2823,5.4321,3.4767.5808-1.4421.2233-3.2151.5367-4.7342A15.032,15.032,0,0,1,32.037,91.75074Z" fill="#f7edbc"/><rect x="14.74908" y="140.83494" width="161.8826" height="7.6299" fill="#d18c7e"/><path d="M165.73267,148.46574c-29.4831,21.1591-92.9793,25.2739-131.06939,0Z" fill="#bc7f72"/><path d="M101.82228,137.16864a2.82767,2.82767,0,0,1-2.87581,3.6663H50.97757a5.07075,5.07075,0,0,1-4.67439-3.6663l-8.7533-35.6865a2.82766,2.82766,0,0,1,2.8758-3.6663h47.969a5.07063,5.07063,0,0,1,4.6743,3.6663Z" fill="#fff"/><path d="M74.40277,119.82994a4.27863,4.27863,0,0,1-4.3146,5.2825,6.63309,6.63309,0,0,1-6.2504-5.2825,4.2785,4.2785,0,0,1,4.3146-5.2824A6.63327,6.63327,0,0,1,74.40277,119.82994Z" fill="#2b2b2b"/></g></g></svg>