<svg xmlns="http://www.w3.org/2000/svg" viewBox="0 0 686.19006 304.06595"><title>Middel 1</title><g id="e69d4427-b2fe-4fd8-9c3e-79c4795e6716" data-name="Laag 2"><g id="a2492bf0-e1e8-4b68-990e-f2339a4b7e38" data-name="Laag 1"><g id="ab13de50-1bcb-457f-9db6-48a3768924cb" data-name="fc0d3d87-a6fa-4f4e-bc90-1fbfb20ff8df"><g id="b9f03e24-54dc-44cf-99d9-d3a0a3e67cb0" data-name="e011f5ee-7b45-4fc9-af9e-4157c6142c2d"><path d="M82.50487,180.36612l-8.59412,18.45654C63.48546,192.62344,51.087,188.6788,43.19762,188.6788c-7.4668,0-12.5387,2.677-12.5387,8.03046,0,18.17432,52.54992,8.03046,52.40893,43.53339,0,19.3009-16.765,29.72692-38.60254,29.72692-16.2013,0-32.40332-6.19915-43.53345-15.63836L9.8082,236.15683c10.14319,9.01666,24.51392,14.79333,34.93921,14.79333,9.15772,0,14.65222-3.38177,14.65222-9.43988,0-18.59625-52.55-7.74835-52.55-42.68762,0-17.89288,15.35633-29.16333,38.17933-29.16333C58.83606,169.65933,72.64244,173.88547,82.50487,180.36612Z" fill="#fff"/><line x1="8.09503" y1="8.00003" x2="2.09503" y2="16.00003" fill="none"/><path d="M584.85187,0C531.67468,0,483.51373,43.10675,483.51373,96.29663c0,53.17719,43.94275,116.66553,101.33814,207.7179,57.39544-91.05237,101.33819-154.54071,101.33819-207.7179C686.19006,43.10675,638.04175,0,584.85187,0Zm.82422,168.65857a67.8882,67.8882,0,1,1,67.63464-67.8877A67.76157,67.76157,0,0,1,585.67609,168.65857Z" fill="#fff"/><path d="M622.40472,63.575a4.34226,4.34226,0,0,0-4.34106-4.34345H554.3573a4.34226,4.34226,0,0,0-4.34345,4.34108v42.713h72.39094Zm-7.23907,35.47156H557.25293V66.4706h57.91272Zm7.23907,10.85863H550.01385c-.713,1.34648-7.23907,16.58477-7.23907,18.0905a3.62744,3.62744,0,0,0,3.62677,3.62679h79.61554a3.62743,3.62743,0,0,0,3.62677-3.6268C629.64386,126.48992,623.1178,111.25163,622.40472,109.90515ZM578.1413,128.00288l1.6903-3.61953h12.75165l1.69031,3.61953Z" fill="#fff"/><ellipse cx="329.36557" cy="155.98553" rx="1" ry="0.5" fill="#fff"/><path d="M96.2492,133.21153,76.26168,62.4776,55.84994,133.21153H32.74476L0,33.98553H24.09772l20.83757,74.84493L65.63038,33.98553H87.60216l20.97925,74.84493,20.6959-74.84493h22.96352l-32.88644,99.226Z" fill="#fff"/><path d="M303.40707,51.5536c6.85172-12.22183,18.14716-18.88741,32.95993-19.07248V59.33065c-20.368-1.85173-32.95993,9.07251-32.95993,25.92313v47.95775H274.892v-99.619h28.51514Z" fill="#fff"/><path d="M381.1344,107.28409V133.324H353.05334V.98553H381.1344V73.75435l35.92065-36.20564H448.9653L413.04361,74.46738,450.60654,133.324H417.42059L393.71542,94.26415Z" fill="#fff"/><path d="M205.57359,214.85664c0,26.97617-16.38423,45.01525-41.37411,45.01525-12.41248,0-22.17739-4.9645-28.63181-13.90158v45.01522H110.08144V169.84058h25.48623v13.07458c6.28952-8.93707,16.05361-13.90158,28.13546-13.90158C188.693,169.01358,205.57359,187.38412,205.57359,214.85664Zm-27.70872.11769c0-14.233-8.93627-24.49348-22.01084-24.49348s-22.17738,10.09554-22.17738,24.49348c0,14.72942,9.10281,24.65923,22.17738,24.65923s22.01082-10.09554,22.01082-24.65923Z" fill="#fff"/><path d="M320.5766,214.3416c0,27.15042-19.20441,45.52592-47.67862,45.52592-28.64082,0-47.84439-18.37549-47.84439-45.52591,0-27.3162,19.20358-45.36094,47.84439-45.36094C301.37219,168.98065,320.5766,187.02539,320.5766,214.3416Zm-69.86215.33073c0,14.56827,8.93905,24.50121,22.18353,24.50121,13.0787,0,22.18353-9.93294,22.18353-24.50121s-9.10486-24.5012-22.18353-24.5012c-13.24445,0-22.18353,9.933-22.18353,24.50122Z" fill="#fff"/><path d="M409.66235,254.19574a54.33336,54.33336,0,0,1-25.64911,6.48511c-17.5877,0-30.96218-9.639-30.96218-29.09348V187.94672h-13.7396V169.369H353.051V143.4294h28.03052v25.93954h26.748v18.75241h-26.748v38.90889c0,7.88657,3.48123,11.04137,9.52725,10.86672,3.66376,0,8.06046-1.22682,13.191-3.50582Z" fill="#fff"/><line y1="300.56738" x2="450" y2="300.56738" fill="none" stroke="#fff" stroke-miterlimit="10" stroke-width="25"/><path d="M257.39871,87.33612c0,27.15042-19.2044,45.52591-47.67862,45.52591-28.64082,0-47.84439-18.37549-47.84439-45.52591,0-27.31621,19.20357-45.36095,47.84439-45.36095C238.19432,41.97517,257.39871,60.01991,257.39871,87.33612Zm-69.86215.33074c0,14.56826,8.93907,24.5012,22.18353,24.5012,13.07869,0,22.18354-9.93294,22.18354-24.5012s-9.10485-24.5012-22.18354-24.5012c-13.24444,0-22.18351,9.93294-22.18351,24.5012Z" fill="#fff"/><rect x="327.09503" y="169.36053" width="123.51053" height="18.75" fill="#fff"/></g></g></g></g></svg>