<svg xmlns="http://www.w3.org/2000/svg" viewBox="0 0 172 90"><title>Middel 2</title><g id="a25f13c4-0056-4ad3-bfba-9dae79132857" data-name="Laag 2"><g id="bc931228-38b1-46f4-9073-b2bc69d47b02" data-name="Laag 1"><path d="M142,0c-15.74249,0-30,12.76126-30,28.50751C112,44.25,125.00875,63.045,142,90c16.99126-26.955,30-45.75,30-61.49249C172,12.76126,157.74624,0,142,0Zm.28793,49.92943A20.09779,20.09779,0,1,1,162.31024,29.757l.00014.07506A20.06,20.06,0,0,1,142.28792,49.92943Z" fill="#fff"/><path d="M152.71022,19.97394a1.2579,1.2579,0,0,0-1.24132-1.27384H133.25223a1.25786,1.25786,0,0,0-1.242,1.27315h0V32.5001h20.7Zm-2.1,10.42616h-16.5v-9.6h16.5Zm2.00794,3H132.03a51.54662,51.54662,0,0,0-2.05882,5.2479,1.04212,1.04212,0,0,0,1.03146,1.0521h22.64294A1.04214,1.04214,0,0,0,154.677,38.648a51.5437,51.5437,0,0,0-2.05884-5.24791Zm-12.60117,5.4.48335-1.2h3.64636l.48335,1.2Z" fill="#fff"/><path d="M40.00684,10.39964l-8.0293,24.792H25.877L20.47656,18.40355,14.90137,35.19164H8.83594L.77148,10.39964H6.66211l5.54,17.42481L17.9873,10.39964h5.25977L28.85742,27.967l5.71485-17.56739Z" fill="#fff"/><path d="M45.00293,34.218a9.2929,9.2929,0,0,1-3.69922-3.48926,9.67954,9.67954,0,0,1-1.332-5.06445,9.682,9.682,0,0,1,1.332-5.06445,9.29728,9.29728,0,0,1,3.69922-3.48828,11.95733,11.95733,0,0,1,10.67676,0,9.32065,9.32065,0,0,1,3.68164,3.48828,9.68265,9.68265,0,0,1,1.333,5.06445,9.68017,9.68017,0,0,1-1.333,5.06445A9.31624,9.31624,0,0,1,55.67969,34.218a11.96567,11.96567,0,0,1-10.67676,0Zm8.80078-4.71094a5.37578,5.37578,0,0,0,1.35059-3.84277,5.37739,5.37739,0,0,0-1.35059-3.84277A4.53229,4.53229,0,0,0,50.35059,20.387a4.592,4.592,0,0,0-3.47168,1.43457,5.33979,5.33979,0,0,0-1.36719,3.84277,5.33819,5.33819,0,0,0,1.36719,3.84277,4.592,4.592,0,0,0,3.47168,1.43458A4.5323,4.5323,0,0,0,53.80371,29.50706Z" fill="#fff"/><path d="M72.21289,16.56273a9.72521,9.72521,0,0,1,3.83887-.709v5.10059q-.91113-.0703-1.22656-.07129a4.98214,4.98214,0,0,0-3.68165,1.32813,5.40027,5.40027,0,0,0-1.333,3.98437v8.9961H64.34082V16.137h5.22461V18.6516A6.09271,6.09271,0,0,1,72.21289,16.56273Z" fill="#fff"/><path d="M87.41211,27.719,84.78223,30.3391v4.85254H79.3125V8.91234h5.46973v14.875L92.77734,16.137h6.52149l-7.85449,8.07519L100,35.19164H93.37305Z" fill="#fff"/><path d="M11.9209,68.36647a13.14906,13.14906,0,0,1-4.36524-2.07129l1.92872-4.32129a13.00535,13.00535,0,0,0,3.752,1.877,13.94955,13.94955,0,0,0,4.34765.708,6.88344,6.88344,0,0,0,3.57618-.72558,2.19574,2.19574,0,0,0,1.15722-1.93067,1.85216,1.85216,0,0,0-.68359-1.46972,5.171,5.171,0,0,0-1.75293-.93848q-1.0708-.353-2.89258-.7793a39.45553,39.45553,0,0,1-4.59375-1.3457,7.45487,7.45487,0,0,1-3.06738-2.16016,5.86451,5.86451,0,0,1-1.28027-3.96679A6.94817,6.94817,0,0,1,9.2041,47.32936a7.79337,7.79337,0,0,1,3.48828-2.78027,14.11616,14.11616,0,0,1,5.69825-1.02735,18.72834,18.72834,0,0,1,4.59277.56641,13.51149,13.51149,0,0,1,3.92773,1.62891l-1.7539,4.35644a13.59072,13.59072,0,0,0-6.80176-1.94726,6.32136,6.32136,0,0,0-3.52344.77929,2.38144,2.38144,0,0,0-1.13965,2.05371,2.00607,2.00607,0,0,0,1.31446,1.89454,20.376,20.376,0,0,0,4.01464,1.22167,39.88123,39.88123,0,0,1,4.59375,1.34668,7.60875,7.60875,0,0,1,3.06739,2.125,5.73169,5.73169,0,0,1,1.28027,3.93067,6.81925,6.81925,0,0,1-1.1748,3.8789,7.91128,7.91128,0,0,1-3.52344,2.7793,14.24454,14.24454,0,0,1-5.71582,1.02735A19.89523,19.89523,0,0,1,11.9209,68.36647Z" fill="#fff"/><path d="M47.40527,50.62233a8.7529,8.7529,0,0,1,3.38379,3.43555,11.43888,11.43888,0,0,1,0,10.30664,8.74012,8.74012,0,0,1-3.38379,3.43554,9.53931,9.53931,0,0,1-4.78613,1.22168A7.247,7.247,0,0,1,36.93848,66.72v8.88964H31.46875V49.68385h5.22461v2.19629a7.22214,7.22214,0,0,1,5.92578-2.47949A9.53942,9.53942,0,0,1,47.40527,50.62233ZM45.126,63.054a6.14561,6.14561,0,0,0,0-7.68555,4.87444,4.87444,0,0,0-6.90723,0,6.14214,6.14214,0,0,0,0,7.68555,4.87444,4.87444,0,0,0,6.90723,0Z" fill="#fff"/><path d="M59.29,67.76491a9.293,9.293,0,0,1-3.69922-3.48926,10.29369,10.29369,0,0,1,0-10.12891A9.29735,9.29735,0,0,1,59.29,50.65846a11.95741,11.95741,0,0,1,10.67676,0,9.32072,9.32072,0,0,1,3.68164,3.48828,10.2871,10.2871,0,0,1,0,10.12891,9.31631,9.31631,0,0,1-3.68164,3.48926,11.96576,11.96576,0,0,1-10.67676,0ZM68.09082,63.054a6.14214,6.14214,0,0,0,0-7.68555,4.53233,4.53233,0,0,0-3.45312-1.43457A4.592,4.592,0,0,0,61.166,55.36842a6.08406,6.08406,0,0,0,0,7.68555,4.592,4.592,0,0,0,3.47168,1.43457A4.53229,4.53229,0,0,0,68.09082,63.054Z" fill="#fff"/><path d="M90.79492,67.81764a5.59228,5.59228,0,0,1-1.98144.90332,9.9467,9.9467,0,0,1-2.47168.30078,7.29727,7.29727,0,0,1-5.207-1.73535A6.67874,6.67874,0,0,1,79.294,62.18678V54.35963H76.38379v-4.25H79.294v-15.022h5.46972v15.022h4.69922v4.25H84.76367v7.75586a2.61687,2.61687,0,0,0,.61426,1.85938,2.25733,2.25733,0,0,0,1.73535.65527,3.49149,3.49149,0,0,0,2.209-.708Z" fill="#fff"/><rect x="47.25" y="28.33766" width="5.5" height="100" transform="translate(-28.33766 128.33766) rotate(-90)" fill="#fff"/></g></g></svg>