<svg xmlns="http://www.w3.org/2000/svg" viewBox="0 0 686.19006 304.04485"><title>Middel 5</title><g id="fc0d3d87-a6fa-4f4e-bc90-1fbfb20ff8df" data-name="Laag 2"><g id="e011f5ee-7b45-4fc9-af9e-4157c6142c2d" data-name="Laag 1"><path d="M84.5318,180.36609l-8.59412,18.45654c-10.42529-6.19922-22.82373-10.14386-30.71313-10.14386-7.4668,0-12.5387,2.677-12.5387,8.03046,0,18.17431,52.54993,8.03046,52.40894,43.53338,0,19.30091-16.765,29.72693-38.60254,29.72693-16.2013,0-32.40332-6.19915-43.53345-15.63836l8.87634-18.17438c10.14319,9.01666,24.51392,14.79333,34.93921,14.79333,9.15772,0,14.65222-3.38177,14.65222-9.43988,0-18.59625-52.55-7.74835-52.55-42.68762,0-17.89288,15.35633-29.16333,38.17932-29.16333C60.863,169.6593,74.66937,173.88544,84.5318,180.36609Z"/><line x1="8.09503" y1="8" x2="2.09503" y2="16" fill="none"/><path d="M584.85189,0c-53.1772,0-101.33817,43.10672-101.33817,96.2966,0,53.1772,43.94277,116.66556,101.33817,207.7179C642.2473,212.96216,686.19006,149.4738,686.19006,96.29658,686.19006,43.10672,638.04175,0,584.85189,0Zm0,139.34a38.00182,38.00182,0,1,1,38.00181-38.00181A37.99945,37.99945,0,0,1,584.85189,139.34Z"/><ellipse cx="585.67607" cy="100.77082" rx="67.63466" ry="67.8877" fill="#fff"/><path d="M622.40475,63.57493a4.34226,4.34226,0,0,0-4.34346-4.34345h-63.704a4.34226,4.34226,0,0,0-4.34346,4.34345v42.71065h72.39092Zm-7.23909,35.47156H557.25292V66.47057h57.91274Zm7.23909,10.85863H550.01383c-.713,1.34647-7.23909,16.58477-7.23909,18.0905a3.62742,3.62742,0,0,0,3.62678,3.62679h79.61554a3.62741,3.62741,0,0,0,3.62679-3.62679C629.64385,126.48989,623.11781,111.2516,622.40475,109.90512Zm-44.26343,18.09773,1.69033-3.61954h12.75166l1.69033,3.61954Z"/><ellipse cx="329.36557" cy="155.9855" rx="1" ry="0.5" fill="#fff"/><path d="M96.2492,133.2115,76.26168,62.47757,55.84994,133.2115H32.74476L0,33.9855H24.09772l20.83757,74.84493L65.63038,33.9855H87.60216l20.97925,74.84493,20.6959-74.84493h22.96351l-32.88644,99.226Z"/><path d="M303.40708,51.55357c6.85172-12.22183,18.14715-18.88741,32.95992-19.07248V59.33062c-20.368-1.85173-32.95992,9.07251-32.95992,25.92313V133.2115H274.892V33.59255h28.51513Z"/><path d="M381.13441,107.28406v26.03987H353.05334V.9855h28.08107V73.75432l35.92064-36.20564h31.91026L413.04362,74.46735l37.56292,58.85658H417.42059L393.71543,94.26412Z"/><path d="M205.57359,214.85661c0,26.97616-16.38424,45.01524-41.37411,45.01524-12.41248,0-22.17739-4.9645-28.63181-13.90158V290.9855H110.08144V169.84055h25.48623v13.07458c6.28952-8.93708,16.0536-13.90158,28.13545-13.90158C188.693,169.01355,205.57359,187.38409,205.57359,214.85661Zm-27.70873.11769c0-14.233-8.93626-24.49349-22.01084-24.49349s-22.17739,10.09554-22.17739,24.49349c0,14.72941,9.10282,24.65923,22.17739,24.65923S177.86486,229.538,177.86486,214.9743Z"/><path d="M320.5766,214.34157c0,27.15042-19.2044,45.52591-47.67861,45.52591-28.64082,0-47.8444-18.37549-47.8444-45.52591,0-27.31621,19.20358-45.36095,47.8444-45.36095C301.3722,168.98062,320.5766,187.02536,320.5766,214.34157Zm-69.86215.33074c0,14.56826,8.93907,24.5012,22.18354,24.5012,13.07869,0,22.18354-9.93294,22.18354-24.5012s-9.10485-24.5012-22.18354-24.5012C259.65352,190.17111,250.71445,200.10405,250.71445,214.67231Z"/><path d="M409.66234,254.19571a54.3333,54.3333,0,0,1-25.6491,6.48511c-17.58772,0-30.96219-9.639-30.96219-29.09348V187.94669H339.31147V169.36892H353.051V143.42937H381.0815v25.93955h26.748v18.75241h-26.748v38.90889c0,7.88656,3.48122,11.04136,9.52725,10.86672,3.66377,0,8.06047-1.22682,13.191-3.50582Z"/><line x1="2.59503" y1="295.56736" x2="450.36557" y2="295.56736" fill="none" stroke="#000" stroke-miterlimit="10" stroke-width="16.95498"/><path d="M257.39872,87.33609c0,27.15042-19.2044,45.52591-47.67861,45.52591-28.64082,0-47.84439-18.37549-47.84439-45.52591,0-27.31621,19.20357-45.36095,47.84439-45.36095C238.19432,41.97514,257.39872,60.01988,257.39872,87.33609Zm-69.86215.33074c0,14.56826,8.93907,24.5012,22.18354,24.5012,13.07869,0,22.18354-9.93294,22.18354-24.5012s-9.10485-24.5012-22.18354-24.5012C196.47564,63.16563,187.53657,73.09857,187.53657,87.66683Z"/><rect x="327.09503" y="169.3605" width="123.51054" height="18.75"/></g></g></svg>