<svg id="b3c13b3e-65de-4200-a924-6961f13f6123" data-name="Laag 1" xmlns="http://www.w3.org/2000/svg" viewBox="0 0 200.01782 90.06139"><title>workspot-logo-white</title><path d="M171.11127.06634c-15.74249,0-30,12.76126-30,28.50751,0,15.74249,13.00875,34.53749,30,61.4925,16.99126-26.955,30-45.75,30-61.49249C201.11127,12.8276,186.85752.06634,171.11127.06634Zm.28794,49.92943a20.09779,20.09779,0,1,1,20.02232-20.173v.00054l.00014.07507a20.06,20.06,0,0,1-20.02248,20.09737Z" transform="translate(-1.09345 -0.06634)" fill="#fff"/><path d="M181.82149,20.04029a1.25791,1.25791,0,0,0-1.24132-1.27385H162.3635a1.25785,1.25785,0,0,0-1.242,1.27315h0V32.56645h20.7Zm-2.1,10.42615h-16.5v-9.6h16.5Zm2.00793,3H161.14127a51.54384,51.54384,0,0,0-2.05882,5.2479,1.04212,1.04212,0,0,0,1.03146,1.0521h22.64295a1.04214,1.04214,0,0,0,1.03146-1.0521,51.54273,51.54273,0,0,0-2.05884-5.24791Zm-12.60116,5.4.48335-1.2H173.258l.48335,1.2Z" transform="translate(-1.09345 -0.06634)" fill="#fff"/><path d="M50.13763,2.14971,40.101,33.05167H32.47528L25.72479,12.12616l-6.969,20.92549H11.174L1.09345,2.14971H8.45673l6.925,21.71912L22.61317,2.14971h6.57471l7.01294,21.89685,7.1436-21.89685Z" transform="translate(-1.09345 -0.06634)" fill="#fff"/><path d="M56.38275,31.83808a11.60253,11.60253,0,0,1-4.624-4.34918,12.03846,12.03846,0,0,1-1.665-6.31259,12.0415,12.0415,0,0,1,1.665-6.31257,11.608,11.608,0,0,1,4.624-4.348,14.98494,14.98494,0,0,1,13.346,0,11.63694,11.63694,0,0,1,4.602,4.348A12.04231,12.04231,0,0,1,75.997,21.17631a12.03927,12.03927,0,0,1-1.66626,6.31259,11.63136,11.63136,0,0,1-4.602,4.34918A14.99522,14.99522,0,0,1,56.38275,31.83808Zm11.001-5.87194A6.689,6.689,0,0,0,69.072,21.17631a6.691,6.691,0,0,0-1.68824-4.78982,5.67345,5.67345,0,0,0-4.31641-1.78812,5.74829,5.74829,0,0,0-4.3396,1.78812,6.64445,6.64445,0,0,0-1.709,4.78982,6.64253,6.64253,0,0,0,1.709,4.78983,5.74822,5.74822,0,0,0,4.3396,1.78812,5.67343,5.67343,0,0,0,4.31639-1.78812Z" transform="translate(-1.09345 -0.06634)" fill="#fff"/><path d="M90.39521,9.83169A12.18709,12.18709,0,0,1,95.1938,8.948V15.3056q-1.13893-.08765-1.53321-.08886a6.23819,6.23819,0,0,0-4.60205,1.65544,6.71907,6.71907,0,0,0-1.66626,4.96631V33.05166H80.55509V9.301h6.53077v3.13438A7.61251,7.61251,0,0,1,90.39521,9.83169Z" transform="translate(-1.09345 -0.06634)" fill="#fff"/><path d="M109.39423,23.73738l-3.28736,3.26585v6.04843H99.26972V.29586h6.83716V18.83679L116.10077,9.301h8.15186l-9.81812,10.06532,10.69458,13.68538H116.8454Z" transform="translate(-1.09345 -0.06634)" fill="#fff"/><path d="M15.05664,74.40241A16.45643,16.45643,0,0,1,9.6001,71.82065L12.011,66.43438a16.27519,16.27519,0,0,0,4.68994,2.33953,17.48189,17.48189,0,0,0,5.43457.88249,8.62518,8.62518,0,0,0,4.47022-.90442,2.7358,2.7358,0,0,0,1.44653-2.40648,2.306,2.306,0,0,0-.85449-1.83194,6.46966,6.46966,0,0,0-2.19117-1.16975q-1.33851-.44-3.61572-.97136a49.42789,49.42789,0,0,1-5.74219-1.67735,9.31831,9.31831,0,0,1-3.83422-2.69253,7.29594,7.29594,0,0,1-1.60035-4.9444,8.64259,8.64259,0,0,1,1.44654-4.87746A9.73662,9.73662,0,0,1,16.021,44.71524a17.68977,17.68977,0,0,1,7.1228-1.28054,23.474,23.474,0,0,1,5.741.706,16.91612,16.91612,0,0,1,4.90972,2.03036l-2.19239,5.43008A17.02435,17.02435,0,0,0,23.09994,49.174a7.92025,7.92025,0,0,0-4.4043.97136,2.96648,2.96648,0,0,0-1.42456,2.55984,2.50074,2.50074,0,0,0,1.64306,2.36145,25.52372,25.52372,0,0,0,5.01832,1.52276A49.95893,49.95893,0,0,1,29.67452,58.268a9.51126,9.51126,0,0,1,3.83423,2.64871A7.13081,7.13081,0,0,1,35.10909,65.816a8.48267,8.48267,0,0,1-1.4685,4.83487,9.88456,9.88456,0,0,1-4.4043,3.46425,17.85072,17.85072,0,0,1-7.14477,1.28052A24.93508,24.93508,0,0,1,15.05664,74.40241Z" transform="translate(-1.09345 -0.06634)" fill="#fff"/><path d="M59.41211,52.28524a10.925,10.925,0,0,1,4.22974,4.28223,14.222,14.222,0,0,1,0,12.8467,10.90913,10.90913,0,0,1-4.22974,4.28224,11.9512,11.9512,0,0,1-5.98266,1.52276,9.072,9.072,0,0,1-7.10083-2.869V83.43064H39.49146V51.11547h6.53076V53.853q2.54151-3.08932,7.40723-3.09055A11.95076,11.95076,0,0,1,59.41211,52.28524ZM56.563,67.78061a6.69367,6.69367,0,0,0,1.687-4.78983A6.69567,6.69567,0,0,0,56.563,58.201a6.10529,6.10529,0,0,0-8.61679-.01716h0L47.929,58.201a6.691,6.691,0,0,0-1.68823,4.78981,6.68907,6.68907,0,0,0,1.6882,4.78983,6.1053,6.1053,0,0,0,8.61679.01717h0l.01721-.01716Z" transform="translate(-1.09345 -0.06634)" fill="#fff"/><path d="M74.26807,73.65259a11.60247,11.60247,0,0,1-4.624-4.34918,12.79872,12.79872,0,0,1,0-12.62516,11.608,11.608,0,0,1,4.624-4.348,14.98486,14.98486,0,0,1,13.346,0,11.637,11.637,0,0,1,4.602,4.34795,12.79067,12.79067,0,0,1,0,12.62517,11.63137,11.63137,0,0,1-4.602,4.34917,14.99514,14.99514,0,0,1-13.346,0Zm11.001-5.87194a6.68915,6.68915,0,0,0,1.68823-4.78983A6.691,6.691,0,0,0,85.26907,58.201a5.67342,5.67342,0,0,0-4.31643-1.78813A5.74819,5.74819,0,0,0,76.613,58.201a6.64436,6.64436,0,0,0-1.709,4.78981,6.6424,6.6424,0,0,0,1.709,4.78983,5.74821,5.74821,0,0,0,4.3396,1.78811,5.67341,5.67341,0,0,0,4.3164-1.78815Z" transform="translate(-1.09345 -0.06634)" fill="#fff"/><path d="M113.64917,73.71832a7,7,0,0,1-2.4768,1.12594,12.46718,12.46718,0,0,1-3.0896.37493,9.13834,9.13834,0,0,1-6.50879-2.163q-2.29982-2.16184-2.301-6.35641v-9.7562H95.63525V51.64615h3.63768V32.629h6.83716V51.64619h5.874V56.9436h-5.874v9.66727a3.2559,3.2559,0,0,0,.76782,2.31762,2.82624,2.82624,0,0,0,2.16919.81677,4.37289,4.37289,0,0,0,2.76123-.88249Z" transform="translate(-1.09345 -0.06634)" fill="#fff"/><rect x="8.62899" y="83.20592" width="104" height="6.85547" fill="#fff"/></svg>