<svg xmlns="http://www.w3.org/2000/svg" viewBox="0 0 200 90.21915"><title>Middel 3</title><g id="b9bbaaa9-0cc1-4edc-8ed8-ab2c769c9cd5" data-name="Laag 2"><g id="a1b31e70-ddf7-4d14-9537-63475921bd29" data-name="Laag 1"><path d="M170,.08766c-15.74249,0-30,12.76126-30,28.50751,0,15.74249,13.00875,34.53749,30,61.49249,16.99126-26.955,30-45.75,30-61.49249C200,12.84892,185.74624.08766,170,.08766Zm.28793,49.92943a20.09779,20.09779,0,1,1,20.02232-20.17244l.00014.07507A20.06,20.06,0,0,1,170.28792,50.01709Z" fill="#fff"/><path d="M180.71022,20.06161a1.2579,1.2579,0,0,0-1.24132-1.27385H161.25223a1.25786,1.25786,0,0,0-1.242,1.27315h0V32.58776h20.7Zm-2.1,10.42615h-16.5v-9.6h16.5Zm2.00794,3H160.03a51.54662,51.54662,0,0,0-2.05882,5.2479,1.04212,1.04212,0,0,0,1.03146,1.0521h22.64294a1.04213,1.04213,0,0,0,1.03147-1.0521,51.5437,51.5437,0,0,0-2.05884-5.24791Zm-12.60117,5.4.48335-1.2h3.64636l.48335,1.2Z" fill="#fff"/><path d="M50.00854,1.85913l-10.03662,30.99H32.34619L25.5957,11.864l-6.969,20.98511H11.04492L.96436,1.85913H8.32764l6.925,21.781,7.23144-21.781h6.57471l7.01294,21.95923L43.21533,1.85913Z" fill="#fff"/><path d="M56.25366,31.63208a11.61623,11.61623,0,0,1-4.624-4.36157,12.09945,12.09945,0,0,1-1.665-6.33057,12.1025,12.1025,0,0,1,1.665-6.33056,11.62172,11.62172,0,0,1,4.624-4.36036,14.94679,14.94679,0,0,1,13.34595,0,11.65083,11.65083,0,0,1,4.60205,4.36036,12.10328,12.10328,0,0,1,1.66626,6.33056,12.10024,12.10024,0,0,1-1.66626,6.33057,11.6453,11.6453,0,0,1-4.60205,4.36157,14.95709,14.95709,0,0,1-13.34595,0Zm11.001-5.88867a6.71975,6.71975,0,0,0,1.68823-4.80347,6.72177,6.72177,0,0,0-1.68823-4.80347,5.66544,5.66544,0,0,0-4.31641-1.79321,5.74007,5.74007,0,0,0-4.3396,1.79321,6.67484,6.67484,0,0,0-1.709,4.80347,6.67283,6.67283,0,0,0,1.709,4.80347,5.74,5.74,0,0,0,4.3396,1.79321A5.66541,5.66541,0,0,0,67.25464,25.74341Z" fill="#fff"/><path d="M90.26611,9.563a12.15658,12.15658,0,0,1,4.79859-.88623v6.37573q-1.13892-.08789-1.53321-.08911a6.22769,6.22769,0,0,0-4.60205,1.66016A6.75033,6.75033,0,0,0,87.26318,21.604V32.84912H80.426V9.03076h6.53076v3.14331A7.61581,7.61581,0,0,1,90.26611,9.563Z" fill="#fff"/><path d="M109.26514,23.5083l-3.28736,3.27515v6.06567H99.14063V0h6.83715V18.59375l9.9939-9.563h8.15186l-9.81812,10.094L125,32.84912h-8.28369Z" fill="#fff"/><path d="M14.90112,74.31767a16.43617,16.43617,0,0,1-5.45654-2.58912l2.41089-5.40161a16.25711,16.25711,0,0,0,4.68994,2.34619,17.43672,17.43672,0,0,0,5.43457.885,8.60423,8.60423,0,0,0,4.47022-.907,2.74466,2.74466,0,0,0,1.44653-2.41333,2.31523,2.31523,0,0,0-.85449-1.83716,6.46369,6.46369,0,0,0-2.19117-1.17309q-1.3385-.44129-3.61572-.97412a49.32216,49.32216,0,0,1-5.74219-1.68213,9.31859,9.31859,0,0,1-3.83422-2.7002,7.3306,7.3306,0,0,1-1.60035-4.95849,8.68515,8.68515,0,0,1,1.44654-4.89136,9.74155,9.74155,0,0,1,4.36035-3.47534,17.64507,17.64507,0,0,1,7.1228-1.28418,23.41023,23.41023,0,0,1,5.741.708,16.88963,16.88963,0,0,1,4.90967,2.03614l-2.19239,5.44555a16.98838,16.98838,0,0,0-8.50219-2.43408,7.9017,7.9017,0,0,0-4.4043.97412,2.9768,2.9768,0,0,0-1.42456,2.56714,2.50759,2.50759,0,0,0,1.64306,2.36817,25.47064,25.47064,0,0,0,5.01832,1.5271A49.84924,49.84924,0,0,1,29.519,58.13725a9.51067,9.51067,0,0,1,3.83423,2.65625,7.16452,7.16452,0,0,1,1.60034,4.91333,8.52408,8.52408,0,0,1-1.4685,4.84863,9.88906,9.88906,0,0,1-4.4043,3.47412A17.80571,17.80571,0,0,1,21.936,75.31376,24.86922,24.86922,0,0,1,14.90112,74.31767Z" fill="#fff"/><path d="M59.25659,52.13749a10.94116,10.94116,0,0,1,4.22974,4.29443,14.29871,14.29871,0,0,1,0,12.8833,10.92516,10.92516,0,0,1-4.22974,4.29444,11.92428,11.92428,0,0,1-5.98266,1.5271,9.05879,9.05879,0,0,1-7.10083-2.8772V83.37162H39.33594V50.96439H45.8667v2.74536q2.54151-3.09813,7.40723-3.09936A11.92418,11.92418,0,0,1,59.25659,52.13749ZM56.40747,67.677a6.72444,6.72444,0,0,0,1.687-4.80347,6.72643,6.72643,0,0,0-1.687-4.80346,6.093,6.093,0,0,0-8.634,0,6.72173,6.72173,0,0,0-1.68823,4.80346A6.71975,6.71975,0,0,0,47.77344,67.677a6.093,6.093,0,0,0,8.634,0Z" fill="#fff"/><path d="M74.11255,73.56571a11.61616,11.61616,0,0,1-4.624-4.36157,12.86708,12.86708,0,0,1,0-12.66113,11.62163,11.62163,0,0,1,4.624-4.36035,14.9467,14.9467,0,0,1,13.346,0A11.65087,11.65087,0,0,1,92.06055,56.543a12.85888,12.85888,0,0,1,0,12.66113,11.64537,11.64537,0,0,1-4.60205,4.36157,14.95709,14.95709,0,0,1-13.346,0Zm11.001-5.88867a6.71979,6.71979,0,0,0,1.68823-4.80347,6.72177,6.72177,0,0,0-1.68823-4.80346,5.66542,5.66542,0,0,0-4.31641-1.79322,5.74,5.74,0,0,0-4.3396,1.79322,6.67475,6.67475,0,0,0-1.709,4.80346,6.67279,6.67279,0,0,0,1.709,4.80347,5.74,5.74,0,0,0,4.3396,1.79321A5.66541,5.66541,0,0,0,85.11353,67.677Z" fill="#fff"/><path d="M113.49365,73.63163a6.99052,6.99052,0,0,1-2.4768,1.12915,12.43379,12.43379,0,0,1-3.0896.376,9.12163,9.12163,0,0,1-6.50879-2.16919q-2.29981-2.168-2.301-6.37451V56.80912H95.47974v-5.3125h3.63769V32.71915h6.83716V51.49662h5.874v5.3125h-5.874v9.69482a3.27111,3.27111,0,0,0,.76782,2.32422,2.82168,2.82168,0,0,0,2.16919.81909,4.36438,4.36438,0,0,0,2.76123-.885Z" fill="#fff"/><rect x="59.0625" y="24.28165" width="6.875" height="125" transform="translate(-24.28165 149.28165) rotate(-90)" fill="#fff"/></g></g></svg>