<svg xmlns="http://www.w3.org/2000/svg" viewBox="0 0 60 90.00001"><title>Middel 1</title><g id="b93eeddc-16bf-4c1f-a516-dd4df7eac390" data-name="Laag 2"><g id="a9a82fc0-7547-4e3e-850f-6884db685b44" data-name="b3c13b3e-65de-4200-a924-6961f13f6123"><path d="M30,0C14.25751,0,0,12.76126,0,28.50751,0,44.25,13.00874,63.045,30,90,46.99126,63.045,60,44.25,60,28.50752,60,12.76126,45.74625,0,30,0Zm.28793,49.92943a20.09779,20.09779,0,1,1,20.02233-20.173V29.757l.00013.07507A20.06,20.06,0,0,1,30.28792,49.92941Z" fill="#fff"/><path d="M40.71022,19.97395A1.25791,1.25791,0,0,0,39.4689,18.7001H21.25223a1.25785,1.25785,0,0,0-1.242,1.27315h0V32.50011h20.7Zm-2.1,10.42615h-16.5v-9.6h16.5Zm2.00794,3H20.03a51.54009,51.54009,0,0,0-2.05882,5.2479,1.04211,1.04211,0,0,0,1.03146,1.0521H41.64558a1.04215,1.04215,0,0,0,1.03147-1.0521,51.54414,51.54414,0,0,0-2.05884-5.24791Zm-12.60117,5.4.48336-1.2h3.64639l.48335,1.2Z" fill="#fff"/></g></g></svg>